<svg xmlns="http://www.w3.org/2000/svg" viewBox="0 0 63.077987 86.469032">
   <g transform="translate(-53.04223,-31.57616)">
      <path
         d="m 64.381949,117.55527 c -2.621318,-0.65542 -5.031075,-2.75216 -5.783608,-5.03236 -0.269556,-0.81676 -0.41748,-10.26324 -0.478316,-30.545566 -0.08808,-29.363123 -0.08808,-29.363123 26.458452,-29.363091 26.546523,3.2e-5 26.546523,3.2e-5 26.546523,28.771592 0,19.818425 -0.12119,29.252855 -0.38945,30.318245 -0.47635,1.89172 -2.36258,4.16778 -4.32276,5.21611 -1.45478,0.77805 -1.55084,0.78185 -21.216952,0.84064 -10.865555,0.0325 -20.231805,-0.06 -20.813889,-0.20557 z m 6.718814,-8.6569 c 0.865909,-0.8659 0.865909,-0.8659 0.865909,-23.949801 0,-21.466213 -0.04326,-23.136007 -0.617362,-23.827473 -1.000306,-1.20481 -2.610428,-1.32265 -3.822999,-0.279796 -1.027695,0.883854 -1.027695,0.883854 -1.127693,23.404112 -0.055,12.386145 -0.01127,22.881488 0.09717,23.322988 0.532226,2.16686 3.04296,2.89199 4.604977,1.32997 z m 14.784826,0.64678 c 1.583814,-0.60777 1.603305,-0.90971 1.603305,-24.837704 0,-22.622435 0,-22.622435 -1.031198,-23.653632 -0.567157,-0.567158 -1.274064,-1.031196 -1.570898,-1.031196 -1.001466,0 -2.256522,0.777939 -2.65067,1.643001 -0.274119,0.601627 -0.391679,7.688948 -0.391679,23.613245 0,22.753606 0,22.753606 0.865911,23.619506 0.845989,0.846 2.028416,1.08685 3.175229,0.64678 z m 15.956261,-0.54791 c 0.81649,-0.76706 0.81649,-0.76706 0.81649,-24.00493 0,-23.237874 0,-23.237874 -0.86591,-24.103783 -1.10359,-1.103585 -2.456264,-1.103585 -3.559848,0 -0.865911,0.865909 -0.865911,0.865909 -0.865911,24.054345 0,23.188438 0,23.188438 0.767049,24.004928 0.983114,1.04647 2.62355,1.06835 3.70813,0.0494 z M 53.377143,49.3282 c -0.286831,-0.46421 0.249199,-2.747312 0.982482,-4.184665 0.941399,-1.845294 2.954869,-3.768437 4.875511,-4.656789 1.599297,-0.739721 1.907193,-0.74885 25.255147,-0.74885 23.636107,0 23.636107,0 25.655497,0.99164 3.12605,1.53508 5.56534,4.991878 5.56534,7.886845 0,0.815299 0,0.815299 -31.078178,0.907296 -17.092994,0.0506 -31.158104,-0.03737 -31.255799,-0.195477 z M 74.573835,35.609717 c 0.276308,-1.381536 1.423806,-2.680534 2.937755,-3.32562 1.778469,-0.757796 12.813962,-0.677358 14.463554,0.105425 1.361546,0.646096 2.565922,2.313854 2.567986,3.556013 0.0013,0.79375 0.0013,0.79375 -10.096945,0.79375 -10.098263,0 -10.098263,0 -9.87235,-1.129568 z"
         id="bin-icon-path" />
   </g>
</svg>
