<?xml version="1.0" encoding="UTF-8" standalone="no"?>
<svg
   xmlns:dc="http://purl.org/dc/elements/1.1/"
   xmlns:cc="http://creativecommons.org/ns#"
   xmlns:rdf="http://www.w3.org/1999/02/22-rdf-syntax-ns#"
   xmlns:svg="http://www.w3.org/2000/svg"
   xmlns="http://www.w3.org/2000/svg"
   xmlns:sodipodi="http://sodipodi.sourceforge.net/DTD/sodipodi-0.dtd"
   xmlns:inkscape="http://www.inkscape.org/namespaces/inkscape"
   width="63.077988mm"
   height="86.469032mm"
   viewBox="0 0 63.077987 86.469032"
   version="1.1"
   id="svg8"
   inkscape:version="1.0.2 (e86c8708, 2021-01-15)"
   sodipodi:docname="garbage_bin.svg">
  <defs
     id="defs2" />
  <sodipodi:namedview
     id="base"
     pagecolor="#ffffff"
     bordercolor="#666666"
     borderopacity="1.0"
     inkscape:pageopacity="0.0"
     inkscape:pageshadow="2"
     inkscape:zoom="3.2050939"
     inkscape:cx="128.62414"
     inkscape:cy="194.78424"
     inkscape:document-units="mm"
     inkscape:current-layer="g1320"
     inkscape:document-rotation="0"
     showgrid="false"
     fit-margin-top="0"
     fit-margin-left="0"
     fit-margin-right="0"
     fit-margin-bottom="0"
     inkscape:window-width="1275"
     inkscape:window-height="1178"
     inkscape:window-x="2475"
     inkscape:window-y="150"
     inkscape:window-maximized="0" />
  <metadata
     id="metadata5">
    <rdf:RDF>
      <cc:Work
         rdf:about="">
        <dc:format>image/svg+xml</dc:format>
        <dc:type
           rdf:resource="http://purl.org/dc/dcmitype/StillImage" />
        <dc:title></dc:title>
      </cc:Work>
    </rdf:RDF>
  </metadata>
  <g
     inkscape:label="Layer 1"
     inkscape:groupmode="layer"
     id="layer1"
     transform="translate(-53.240116,-32.311334)">
    <g
       id="g1320"
       transform="translate(0.19788186,0.73517417)">
      <path
         style="fill:#d0d0d0;fill-opacity:1;stroke-width:0.352778"
         d="m 64.381949,117.55527 c -2.621318,-0.65542 -5.031075,-2.75216 -5.783608,-5.03236 -0.269556,-0.81676 -0.41748,-10.26324 -0.478316,-30.545566 -0.08808,-29.363123 -0.08808,-29.363123 26.458452,-29.363091 26.546523,3.2e-5 26.546523,3.2e-5 26.546523,28.771592 0,19.818425 -0.12119,29.252855 -0.38945,30.318245 -0.47635,1.89172 -2.36258,4.16778 -4.32276,5.21611 -1.45478,0.77805 -1.55084,0.78185 -21.216952,0.84064 -10.865555,0.0325 -20.231805,-0.06 -20.813889,-0.20557 z m 6.718814,-8.6569 c 0.865909,-0.8659 0.865909,-0.8659 0.865909,-23.949801 0,-21.466213 -0.04326,-23.136007 -0.617362,-23.827473 -1.000306,-1.20481 -2.610428,-1.32265 -3.822999,-0.279796 -1.027695,0.883854 -1.027695,0.883854 -1.127693,23.404112 -0.055,12.386145 -0.01127,22.881488 0.09717,23.322988 0.532226,2.16686 3.04296,2.89199 4.604977,1.32997 z m 14.784826,0.64678 c 1.583814,-0.60777 1.603305,-0.90971 1.603305,-24.837704 0,-22.622435 0,-22.622435 -1.031198,-23.653632 -0.567157,-0.567158 -1.274064,-1.031196 -1.570898,-1.031196 -1.001466,0 -2.256522,0.777939 -2.65067,1.643001 -0.274119,0.601627 -0.391679,7.688948 -0.391679,23.613245 0,22.753606 0,22.753606 0.865911,23.619506 0.845989,0.846 2.028416,1.08685 3.175229,0.64678 z m 15.956261,-0.54791 c 0.81649,-0.76706 0.81649,-0.76706 0.81649,-24.00493 0,-23.237874 0,-23.237874 -0.86591,-24.103783 -1.10359,-1.103585 -2.456264,-1.103585 -3.559848,0 -0.865911,0.865909 -0.865911,0.865909 -0.865911,24.054345 0,23.188438 0,23.188438 0.767049,24.004928 0.983114,1.04647 2.62355,1.06835 3.70813,0.0494 z M 53.377143,49.3282 c -0.286831,-0.46421 0.249199,-2.747312 0.982482,-4.184665 0.941399,-1.845294 2.954869,-3.768437 4.875511,-4.656789 1.599297,-0.739721 1.907193,-0.74885 25.255147,-0.74885 23.636107,0 23.636107,0 25.655497,0.99164 3.12605,1.53508 5.56534,4.991878 5.56534,7.886845 0,0.815299 0,0.815299 -31.078178,0.907296 -17.092994,0.0506 -31.158104,-0.03737 -31.255799,-0.195477 z M 74.573835,35.609717 c 0.276308,-1.381536 1.423806,-2.680534 2.937755,-3.32562 1.778469,-0.757796 12.813962,-0.677358 14.463554,0.105425 1.361546,0.646096 2.565922,2.313854 2.567986,3.556013 0.0013,0.79375 0.0013,0.79375 -10.096945,0.79375 -10.098263,0 -10.098263,0 -9.87235,-1.129568 z"
         id="path1332" />
      <path
         style="fill:#b9b9b9;fill-opacity:1;stroke-width:0.352778"
         d="m 62.530446,116.78298 c -1.66787,-0.82558 -3.12665,-2.37938 -3.8464,-4.09695 -0.386235,-0.92168 -0.475708,-6.67769 -0.475708,-30.60347 0,-29.468275 0,-29.468275 26.46801,-29.468275 26.468012,0 26.468012,0 26.370142,29.545138 -0.0977,29.505997 -0.0989,29.547007 -0.85932,30.956247 -0.41879,0.77611 -1.21254,1.83926 -1.76389,2.36254 -2.19595,2.08418 -1.76227,2.04721 -24.009861,2.04691 -20.006131,-2.7e-4 -20.412048,-0.014 -21.882973,-0.74214 z m 8.619739,-7.78574 c 0.816487,-0.76706 0.816487,-0.76706 0.816487,-24.00493 0,-23.237874 0,-23.237874 -0.865909,-24.103783 -1.167514,-1.167513 -2.474679,-1.107373 -3.754804,0.172753 -1.038662,1.038661 -1.038662,1.038661 -0.943003,24.196566 0.09566,23.157904 0.09566,23.157904 0.928492,23.832174 1.113988,0.90189 2.803652,0.86084 3.818737,-0.0928 z m 15.329489,0.0928 c 0.832831,-0.67427 0.832831,-0.67427 0.92849,-23.832174 0.09566,-23.157905 0.09566,-23.157905 -0.943003,-24.196566 -1.280125,-1.280126 -2.58729,-1.340266 -3.754801,-0.172753 -0.865911,0.865909 -0.865911,0.865909 -0.865911,24.004924 0,23.139019 0,23.139019 0.865911,24.004919 1.051137,1.05114 2.609808,1.13039 3.769314,0.19165 z m 15.230576,0.23329 c 0.32884,-0.24253 0.75575,-0.99448 0.94869,-1.67099 0.22025,-0.77224 0.31825,-9.547697 0.2633,-23.578552 -0.0875,-22.34852 -0.0875,-22.34852 -1.07732,-23.199835 -1.21399,-1.044119 -2.326223,-1.081778 -3.548728,-0.120155 -0.929521,0.73116 -0.929521,0.73116 -0.929521,24.165278 0,22.963744 0.01415,23.448274 0.705556,24.139674 0.803099,0.8031 2.718983,0.94243 3.638023,0.26458 z M 53.434455,48.116368 c 0.750588,-4.077415 3.481658,-6.999319 7.505781,-8.030252 1.877138,-0.4809 5.136532,-0.540496 24.674498,-0.451157 21.988216,0.100543 22.548576,0.120096 24.099156,0.84089 0.87313,0.405875 2.09423,1.166298 2.71356,1.689829 1.33405,1.127697 3.28367,4.851352 3.28367,6.27162 0,1.001987 0,1.001987 -31.260098,1.001987 -31.260095,0 -31.260095,0 -31.016567,-1.322917 z M 74.436116,36.085899 c 0,-1.053548 1.502191,-3.000854 2.829253,-3.667594 1.024128,-0.51454 2.218238,-0.616904 7.201729,-0.617361 5.232347,-4.8e-4 6.153062,0.08612 7.416038,0.697514 1.509758,0.730862 2.661313,2.245968 2.661313,3.501507 0,0.73328 -0.08213,0.73932 -10.054166,0.73932 -9.551388,0 -10.054167,-0.03267 -10.054167,-0.653386 z"
         id="path1330" />
      <path
         style="fill:#a3a3a3;fill-opacity:1;stroke-width:0.352778"
         d="m 62.530446,116.78298 c -1.66787,-0.82558 -3.12665,-2.37938 -3.8464,-4.09695 -0.386235,-0.92168 -0.475708,-6.67769 -0.475708,-30.60347 0,-29.468275 0,-29.468275 26.46801,-29.468275 26.468012,0 26.468012,0 26.370142,29.545138 -0.0979,29.545137 -0.0979,29.545137 -0.87615,31.000067 -0.8803,1.64564 -2.55913,3.18688 -4.23748,3.8902 -0.90804,0.38052 -5.21415,0.47565 -21.519441,0.47543 -20.006131,-2.7e-4 -20.412048,-0.014 -21.882973,-0.74214 z m 8.619739,-7.78574 c 0.816487,-0.76706 0.816487,-0.76706 0.816487,-24.00493 0,-23.237874 0,-23.237874 -0.865909,-24.103783 -1.409547,-1.409546 -3.388238,-1.053233 -4.368134,0.786593 -0.299832,0.562955 -0.410402,6.911531 -0.410402,23.563951 0,22.793399 0,22.793399 0.865909,23.659299 1.10734,1.10734 2.842485,1.15064 3.962049,0.0989 z m 15.329489,0.0928 c 0.832831,-0.67426 0.832831,-0.67426 0.932801,-23.371527 0.05498,-12.483494 0.01337,-23.050058 -0.09247,-23.48125 -0.521613,-2.125082 -3.083665,-2.874701 -4.609648,-1.348716 -0.865911,0.865909 -0.865911,0.865909 -0.865911,23.941315 0,22.810588 0.0084,23.086068 0.73116,24.004918 0.894285,1.1369 2.671555,1.2531 3.904065,0.25526 z m 15.447676,-0.006 c 0.37407,-0.37406 0.77931,-1.36625 0.90054,-2.20486 0.12122,-0.8386 0.17235,-11.341365 0.11362,-23.339475 -0.10678,-21.814749 -0.10678,-21.814749 -1.09659,-22.665978 -1.25599,-1.080134 -2.408872,-1.080122 -3.664828,3.9e-5 -0.989809,0.851268 -0.989809,0.851268 -1.089808,23.371526 -0.055,12.386145 -0.01129,22.881488 0.09717,23.322988 0.506293,2.06128 3.300746,2.95491 4.739896,1.51576 z M 53.474561,48.116368 c 0.579405,-3.233073 2.693506,-6.008362 5.615722,-7.372051 1.763889,-0.82314 1.763889,-0.82314 25.4,-0.811102 18.589437,0.0095 23.912897,0.110888 24.932417,0.475002 2.98679,1.066702 5.62343,4.308527 6.14205,7.551826 0.23654,1.479242 0.23654,1.479242 -31.045363,1.479242 -31.281909,0 -31.281909,0 -31.044826,-1.322917 z M 74.598152,35.769146 c 0.331193,-1.347049 1.09084,-2.437639 2.208119,-3.170087 0.787746,-0.516418 1.944197,-0.643075 6.798194,-0.744548 3.491551,-0.07299 6.419603,0.03138 7.264752,0.258957 1.715869,0.462035 3.229596,1.956665 3.536675,3.492051 0.226752,1.133766 0.226752,1.133766 -9.909757,1.133766 -10.136507,0 -10.136507,0 -9.897983,-0.970139 z"
         id="path1328" />
      <path
         style="fill:#8c8c8c;fill-opacity:1;stroke-width:0.352778"
         d="m 62.517311,116.61507 c -1.984453,-0.98889 -3.25764,-2.4049 -3.907475,-4.34579 -0.287265,-0.85799 -0.401498,-9.51499 -0.401498,-30.427081 0,-29.227914 0,-29.227914 26.458334,-29.227914 26.458328,0 26.458328,0 26.458328,28.174071 0,17.623123 -0.13436,28.882604 -0.35881,30.066064 -0.44781,2.36133 -1.68136,4.26016 -3.5869,5.52144 -1.47025,0.97315 -1.47025,0.97315 -22.136487,1.06943 -20.666235,0.0963 -20.666235,0.0963 -22.525492,-0.83022 z m 7.700582,-6.85079 c 0.1706,0 0.633867,-0.34743 1.029481,-0.77207 0.708868,-0.76088 0.719298,-1.11089 0.719298,-24.139674 0,-23.367598 0,-23.367598 -0.92952,-24.098758 -1.559236,-1.226495 -3.355939,-0.924742 -4.198806,0.705182 -0.437281,0.845609 -0.516119,4.464484 -0.516119,23.691253 0,20.272307 0.06048,22.779537 0.566914,23.502577 0.633095,0.90387 1.834378,1.50048 2.548744,1.26582 0.258404,-0.0849 0.609408,-0.15433 0.780008,-0.15433 z m 32.309607,-1.64209 c 0.41578,-0.99511 0.48287,-4.94646 0.40302,-23.736499 -0.0958,-22.54266 -0.0958,-22.54266 -0.95104,-23.452867 -0.56841,-0.604945 -1.22809,-0.910206 -1.96698,-0.910206 -0.738881,0 -1.398558,0.305261 -1.966975,0.910206 -0.855242,0.910207 -0.855242,0.910207 -0.951131,23.544476 -0.07166,16.91613 0.01044,22.89094 0.324951,23.65026 0.942417,2.27519 4.156685,2.27181 5.108155,-0.005 z m -15.769766,0.71257 c 0.722506,-0.91852 0.73116,-1.19843 0.73116,-23.653626 0,-19.253905 -0.07882,-22.876524 -0.516118,-23.722174 -0.875922,-1.693841 -2.871893,-1.960959 -4.262416,-0.570433 -0.865911,0.865909 -0.865911,0.865909 -0.865911,24.054345 0,23.188438 0,23.188438 0.767049,24.004928 1.112886,1.18461 3.169613,1.12854 4.146236,-0.11304 z M 53.518723,48.116368 c 0.499533,-3.224946 3.124366,-6.491088 6.134736,-7.633595 1.405708,-0.533501 3.818756,-0.580194 25.36599,-0.490843 26.799401,0.111129 25.105331,-0.06152 27.927131,2.846153 1.28003,1.318979 2.76454,4.491951 2.76454,5.90888 0,0.682691 -0.43397,0.692322 -31.198658,0.692322 -31.198654,0 -31.198654,0 -30.993739,-1.322917 z M 74.436116,36.375176 c 0,-1.02802 1.152045,-2.878461 2.183631,-3.507404 1.066246,-0.650071 1.769283,-0.712076 8.087543,-0.71328 6.484222,-0.0012 6.978739,0.04505 7.856354,0.735386 1.006987,0.792094 1.980805,2.415806 1.980805,3.302721 0,0.480941 -1.209117,0.546686 -10.054166,0.546686 -6.676179,0 -10.054167,-0.122333 -10.054167,-0.364109 z"
         id="path1326" />
      <path
         style="fill:#767676;fill-opacity:1;stroke-width:0.352778"
         d="m 62.399208,116.53966 c -1.373643,-0.7176 -2.176289,-1.45374 -2.950701,-2.7062 -1.06378,-1.72046 -1.06378,-1.72046 -1.157851,-31.469817 -0.09407,-29.749358 -0.09407,-29.749358 26.281944,-29.749451 26.37602,-9.2e-5 26.37602,-9.2e-5 26.29107,29.015973 -0.0467,15.958834 -0.16945,29.513255 -0.27275,30.120945 -0.30972,1.82206 -2.126,3.96727 -4.16125,4.91487 -1.83105,0.85252 -1.83105,0.85252 -21.987298,0.85597 -20.156243,0.003 -20.156243,0.003 -22.043164,-0.98229 z m 7.758379,-6.81248 c 0.615132,-0.21444 1.270771,-0.67455 1.456976,-1.02248 0.205737,-0.38442 0.346858,-9.73126 0.359724,-23.825529 0.02117,-23.192937 0.02117,-23.192937 -0.760272,-24.024745 -1.065475,-1.134147 -2.872941,-1.118837 -4.025879,0.0341 -0.865909,0.865911 -0.865909,0.865911 -0.865909,23.910396 0,24.999078 -0.06194,24.180688 1.88983,24.968328 0.415802,0.1678 0.772002,0.31515 0.791555,0.32745 0.01955,0.0123 0.538842,-0.15308 1.153975,-0.36752 z m 16.633689,-0.93506 c 0.678822,-0.86298 0.697618,-1.50858 0.697618,-23.962278 0,-23.075406 0,-23.075406 -0.865911,-23.941315 -1.145589,-1.145592 -2.767034,-1.145592 -3.912623,0 -0.865911,0.865909 -0.865911,0.865909 -0.854692,24.077085 0.01199,24.810848 -0.04078,24.066188 1.7526,24.729608 1.197645,0.44304 2.390316,0.10465 3.183008,-0.9031 z m 15.404984,0.19264 c 0.60026,-0.66313 0.64419,-2.08383 0.73407,-23.739536 0.0956,-23.034192 0.0956,-23.034192 -0.82511,-24.128399 -1.27545,-1.51579 -2.909978,-1.51579 -4.185432,0 -0.920714,1.094207 -0.920714,1.094207 -0.825112,24.128399 0.09074,21.861516 0.128912,23.070986 0.749808,23.756916 1.100409,1.21567 3.243376,1.20711 4.351776,-0.0174 z M 53.655104,47.862564 c 0.576165,-3.084063 2.418783,-5.545112 5.351746,-7.147933 1.055,-0.576541 2.960763,-0.631384 25.078126,-0.721684 23.936364,-0.09773 23.936364,-0.09773 25.752774,0.738501 3.08508,1.420282 5.08716,4.010381 5.70836,7.38492 0.24353,1.322917 0.24353,1.322917 -30.97102,1.322917 -31.21455,0 -31.21455,0 -30.919986,-1.576721 z M 74.436116,36.351627 c 0,-0.943839 1.271566,-2.927543 2.264819,-3.533228 0.963122,-0.587309 1.848097,-0.662147 7.789348,-0.658706 4.654782,0.0027 6.969015,0.138599 7.574131,0.444793 1.031579,0.521984 2.480035,2.555293 2.480035,3.481413 0,0.620712 -0.502779,0.653386 -10.054166,0.653386 -7.070676,0 -10.054167,-0.115035 -10.054167,-0.387658 z"
         id="path1324" />
      <path
         id="path1322"
         style="fill:#800000;fill-opacity:1;stroke-width:0.352778"
         sodipodi:type="inkscape:offset"
         inkscape:radius="0.58092779"
         inkscape:original="M 84.490234 32.15625 C 78.457663 32.157155 77.685007 32.226056 76.753906 32.839844 C 75.561775 33.6257 74.818741 34.805436 74.800781 35.945312 C 74.788279 36.739063 74.788238 36.740234 84.666016 36.740234 C 91.220941 36.740234 94.544922 36.616624 94.544922 36.375 C 94.544922 35.34698 93.392914 33.49613 92.361328 32.867188 C 91.298067 32.218932 90.593208 32.155332 84.490234 32.15625 z M 85.228516 39.992188 C 58.996398 39.883408 59.66982 39.831785 56.878906 42.220703 C 55.213738 43.646026 53.623047 46.602548 53.623047 48.273438 C 53.623047 49.438895 53.623165 49.439453 84.683594 49.439453 C 115.74403 49.439453 115.74383 49.440104 115.49609 48.117188 C 114.91789 45.029537 113.24893 42.687018 110.45898 41.046875 C 108.83167 40.090218 108.83262 40.090068 85.228516 39.992188 z M 100.45703 52.363281 C 96.151396 52.345943 90.758781 52.615234 84.490234 52.615234 C 72.882084 52.615234 60.307769 51.766788 57.5 53.298828 C 53.093369 55.703276 56.59157 75.917672 56.724609 83.199219 C 56.725922 102.56673 58.336109 111.09445 58.585938 111.99414 C 59.063417 113.71364 61.15352 116.03776 62.970703 116.87109 C 64.294977 117.47841 65.642871 117.51329 84.871094 117.43359 C 105.36018 117.3487 105.35977 117.34894 107.08008 116.28516 C 108.33232 115.51081 109.06957 114.7075 109.78711 113.33398 C 110.77285 111.44706 111.5898 111.07558 113.16602 81.701172 C 113.99152 66.316936 114.31724 56.452138 109.90234 53.826172 C 107.98148 52.683656 104.76267 52.38062 100.45703 52.363281 z M 84.646484 60.029297 C 85.358633 60.047066 86.069378 60.335002 86.623047 60.888672 C 87.488958 61.754581 87.488281 61.754313 87.488281 84.992188 C 87.488281 108.23006 87.489063 108.2298 86.695312 108.9707 C 85.229528 110.33889 83.472718 110.26002 82.285156 108.77148 C 81.942393 108.34184 81.84375 103.02138 81.84375 84.886719 C 81.84375 61.555919 81.843669 61.556112 82.660156 60.789062 C 83.219939 60.263175 83.934336 60.011527 84.646484 60.029297 z M 100.4043 60.060547 C 101.01135 60.142175 101.5866 60.360992 102.00195 60.697266 C 102.83474 61.371536 102.83409 61.371818 102.92969 84.658203 C 103.02525 107.94458 103.02573 107.94294 102.22461 108.83984 C 100.82425 110.40764 98.75113 110.32425 97.580078 108.65234 C 97.073644 107.9293 97.013672 105.4227 97.013672 85.150391 C 97.013672 61.146655 97.032989 60.850102 98.617188 60.242188 C 99.158331 60.034531 99.797246 59.978919 100.4043 60.060547 z M 68.628906 60.076172 C 70.160033 59.72962 71.805182 60.725292 72.142578 62.578125 C 72.25755 63.209482 72.305577 73.764278 72.248047 86.03125 C 72.145976 107.79709 72.126044 108.35112 71.4375 109.02734 C 70.659747 109.79112 69.260451 110.1865 68.439453 109.875 C 68.148411 109.76457 67.551797 109.35031 67.115234 108.95312 C 66.321484 108.23098 66.322266 108.23006 66.322266 84.992188 C 66.322266 61.754313 66.321591 61.754581 67.1875 60.888672 C 67.619408 60.456764 68.118531 60.191689 68.628906 60.076172 z "
         d="m 84.490234,31.576172 c -3.018493,4.53e-4 -4.720541,0.01499 -5.832031,0.113281 -1.11149,0.0983 -1.705748,0.323979 -2.224609,0.666016 -1.322579,0.871847 -2.191054,2.194155 -2.212891,3.580078 -0.0016,0.09922 -0.01342,0.226835 0.0293,0.40625 0.04272,0.179415 0.178787,0.401868 0.355469,0.53125 0.353363,0.258763 0.725528,0.29345 1.373047,0.345703 1.295037,0.104506 3.748588,0.101562 8.6875,0.101562 3.281114,0 5.755383,-0.03017 7.419922,-0.0918 0.832269,-0.03082 1.458634,-0.06857 1.90039,-0.117188 0.220878,-0.02431 0.391948,-0.04829 0.546875,-0.08789 0.07746,-0.0198 0.149902,-0.03994 0.251953,-0.0957 0.05103,-0.02788 0.11331,-0.06305 0.185547,-0.144531 C 95.04294,36.701718 95.125,36.549045 95.125,36.375 c 0,-0.731008 -0.338831,-1.4845 -0.791016,-2.210938 C 93.8818,33.437625 93.314047,32.767379 92.664062,32.371094 92.090926,32.02166 91.488449,31.79072 90.367188,31.689453 89.245926,31.588186 87.543743,31.575713 84.490234,31.576172 Z M 70.125,39.376953 c -3.673883,0.01704 -6.148345,0.07447 -7.908203,0.212891 -3.519716,0.276846 -4.335352,1.008659 -5.714844,2.189453 -0.913907,0.782271 -1.752513,1.920683 -2.386719,3.099609 -0.634206,1.178926 -1.072265,2.374738 -1.072265,3.394532 0,0.145687 -0.01855,0.387376 0.130859,0.662109 0.149414,0.274733 0.431228,0.455478 0.748047,0.5625 0.633638,0.214043 1.606701,0.301544 3.5625,0.375 3.911599,0.146911 11.669001,0.146484 27.199219,0.146484 15.530216,0 23.286926,0.0026 27.171876,-0.164062 1.94247,-0.08332 2.88766,-0.17663 3.51953,-0.4375 0.31594,-0.130435 0.6075,-0.386954 0.69922,-0.701172 0.0917,-0.314218 0.0232,-0.541678 -0.008,-0.707031 -0.60565,-3.234192 -2.40148,-5.751573 -5.3125,-7.462891 -0.4068,-0.239148 -0.81101,-0.469983 -1.47461,-0.621094 -0.6636,-0.15111 -1.57947,-0.242097 -3.16992,-0.308593 -3.18091,-0.132993 -9.076858,-0.156139 -20.878911,-0.205079 -6.557829,-0.02719 -11.431586,-0.0522 -15.105469,-0.03516 z m 30.33398,12.40625 c -4.331805,-0.01744 -9.716836,0.251953 -15.968746,0.251953 -5.789921,0 -11.832762,-0.213707 -16.792968,-0.234375 -2.480103,-0.01033 -4.688593,0.02787 -6.472657,0.166016 -1.784063,0.138147 -3.12018,0.341132 -4.001953,0.822265 -0.71523,0.390261 -1.208597,1.096232 -1.564453,1.966797 -0.355856,0.870566 -0.585609,1.929322 -0.734375,3.134766 -0.297532,2.410887 -0.264819,5.411928 -0.09375,8.560547 0.342138,6.297237 1.249453,13.200205 1.314453,16.757812 9.7e-4,9.69398 0.4042,16.683536 0.839844,21.367186 0.217906,2.34274 0.442851,4.10845 0.630859,5.34961 0.188009,1.24116 0.327441,1.92673 0.410157,2.22461 0.279155,1.0053 0.966519,2.05653 1.818359,3.00391 0.85184,0.94738 1.86688,1.77735 2.884766,2.24414 0.363095,0.16652 0.782403,0.30891 1.4375,0.40234 0.655096,0.0934 1.562828,0.15187 3.02539,0.18945 2.925126,0.0752 8.067122,0.0633 17.681641,0.0234 10.244541,-0.0424 15.359993,-0.0618 18.169923,-0.20703 1.40496,-0.0726 2.24097,-0.17404 2.87305,-0.34375 0.63207,-0.16971 1.03867,-0.41765 1.46875,-0.68359 1.31834,-0.81523 2.16785,-1.73991 2.91796,-3.17578 0.23481,-0.44948 0.50361,-0.89233 0.75977,-1.70313 0.25616,-0.8108 0.50496,-1.98196 0.76953,-4 0.52914,-4.03608 1.12567,-11.475533 1.91406,-26.167968 0.41289,-7.69467 0.70421,-14.017961 0.33203,-18.798828 -0.37217,-4.780867 -1.39137,-8.127845 -3.8789,-9.607422 -2.12713,-1.265206 -5.4085,-1.525525 -9.74024,-1.542969 z m -15.826168,8.826172 c 0.565344,0.01411 1.130973,0.240347 1.580079,0.689453 0.216461,0.216461 0.248191,0.199468 0.347656,0.595703 0.09946,0.396235 0.186679,1.184659 0.240234,2.677735 0.10711,2.98615 0.107422,8.800978 0.107422,20.419922 0,11.618942 -0.0014,17.433752 -0.09961,20.406252 -0.0491,1.48625 -0.128255,2.26741 -0.21875,2.64648 -0.0905,0.37907 -0.0926,0.31675 -0.291016,0.50196 -0.644191,0.60129 -1.29549,0.84111 -1.886719,0.81445 -0.591228,-0.0267 -1.162069,-0.31216 -1.671875,-0.95117 0.135183,0.16944 0.03256,0.0547 0.002,-0.13672 -0.03061,-0.19141 -0.06373,-0.49266 -0.0918,-0.9043 -0.05613,-0.82327 -0.09914,-2.09122 -0.132813,-3.91211 -0.06734,-3.641769 -0.09375,-9.504034 -0.09375,-18.570311 0,-11.665401 3.81e-4,-17.503415 0.101563,-20.490235 0.05059,-1.49341 0.133349,-2.278579 0.226562,-2.662109 0.09321,-0.38353 0.102514,-0.329717 0.306641,-0.521484 0.447423,-0.420332 1.008481,-0.617633 1.574218,-0.603516 z m -14.964843,0.01758 c 0.894935,0.169106 1.689089,0.883586 1.902343,2.054688 -0.01055,-0.05791 0.01924,0.234451 0.03125,0.601562 0.01201,0.367112 0.02335,0.876679 0.0332,1.509766 0.01971,1.266174 0.03533,3.026177 0.04492,5.15039 0.01918,4.248428 0.01704,9.953991 -0.01172,16.085938 -0.05103,10.882766 -0.08251,16.466743 -0.185547,19.388673 -0.05152,1.46096 -0.125584,2.25925 -0.210938,2.67383 -0.08535,0.41457 -0.09539,0.37923 -0.240234,0.52148 -0.300365,0.29497 -0.770055,0.55039 -1.234375,0.68164 -0.46432,0.13126 -0.918456,0.12511 -1.150391,0.0371 -0.0867,-0.0329 -0.750211,-0.45339 -1.140625,-0.80859 -0.198357,-0.18046 -0.19499,-0.11068 -0.285156,-0.48633 -0.09016,-0.37565 -0.169649,-1.15542 -0.21875,-2.64063 -0.0982,-2.97041 -0.09961,-8.78535 -0.09961,-20.404292 0,-11.618944 3.11e-4,-17.433772 0.107422,-20.419922 0.05356,-1.493076 0.14077,-2.2815 0.240234,-2.677735 0.09946,-0.396235 0.131195,-0.379242 0.347656,-0.595703 0.357709,-0.357709 0.756869,-0.564971 1.160156,-0.65625 0.30252,-0.06847 0.611845,-0.07199 0.910157,-0.01563 z m 30.658201,0.0098 c 0.51919,0.06981 1.00329,0.262954 1.31055,0.511719 0.20815,0.168531 0.19105,0.08315 0.28516,0.447265 0.0941,0.364114 0.18279,1.140423 0.24023,2.625 0.11488,2.969155 0.1397,8.796255 0.1875,20.439453 0.0478,11.643193 0.0698,17.471034 -0.0176,20.468754 -0.0437,1.49886 -0.12041,2.29352 -0.21289,2.70117 -0.0925,0.40765 -0.1278,0.39878 -0.32812,0.62304 -0.6019,0.67387 -1.29832,0.95407 -1.951176,0.92774 -0.652854,-0.0263 -1.287487,-0.35477 -1.783203,-1.0625 -0.07843,-0.11197 -0.291194,-0.86308 -0.369141,-4.09961 -0.07795,-3.23653 -0.09375,-8.932778 -0.09375,-19.068359 0,-12.001713 0.0072,-18.086053 0.207031,-21.189453 0.09991,-1.551701 0.266096,-2.355905 0.425781,-2.703126 0.159686,-0.34722 0.217941,-0.326196 0.59961,-0.472656 0.430739,-0.165291 0.98084,-0.218246 1.499998,-0.148437 z" />
    </g>
  </g>
</svg>
