<?xml version="1.0" encoding="UTF-8" standalone="no"?>
<svg
   xmlns:dc="http://purl.org/dc/elements/1.1/"
   xmlns:cc="http://creativecommons.org/ns#"
   xmlns:rdf="http://www.w3.org/1999/02/22-rdf-syntax-ns#"
   xmlns:svg="http://www.w3.org/2000/svg"
   xmlns="http://www.w3.org/2000/svg"
   xmlns:sodipodi="http://sodipodi.sourceforge.net/DTD/sodipodi-0.dtd"
   xmlns:inkscape="http://www.inkscape.org/namespaces/inkscape"
   viewBox="0 0 135.12918 135.25691"
   id="portal-svg"
   version="1.1"
   sodipodi:docname="portal.svg"
   width="135.12918"
   height="135.25691"
   inkscape:version="1.0.2 (e86c8708, 2021-01-15)">
  <metadata
     id="metadata841">
    <rdf:RDF>
      <cc:Work
         rdf:about="">
        <dc:format>image/svg+xml</dc:format>
        <dc:type
           rdf:resource="http://purl.org/dc/dcmitype/StillImage" />
        <dc:title></dc:title>
      </cc:Work>
    </rdf:RDF>
  </metadata>
  <defs
     id="defs839" />
  <sodipodi:namedview
     pagecolor="#ffffff"
     bordercolor="#666666"
     borderopacity="1"
     objecttolerance="10"
     gridtolerance="10"
     guidetolerance="10"
     inkscape:pageopacity="0"
     inkscape:pageshadow="2"
     inkscape:window-width="1231"
     inkscape:window-height="779"
     id="namedview837"
     showgrid="false"
     fit-margin-top="0"
     fit-margin-left="0"
     fit-margin-right="0"
     fit-margin-bottom="0"
     inkscape:zoom="1.1701987"
     inkscape:cx="-92.861374"
     inkscape:cy="71.329652"
     inkscape:window-x="0"
     inkscape:window-y="563"
     inkscape:window-maximized="0"
     inkscape:current-layer="portal-svg" />
  <g
     id="g834"
     transform="translate(-35.83215,-35.076195)">
    <path
       d="m 97.531452,170.08847 c -3.51336,-0.2906 -7.127304,-0.92553 -11.200331,-1.96775 -9.105113,-2.32985 -18.058209,-6.82285 -25.399999,-12.74669 -3.434693,-2.77134 -9.002271,-8.50114 -11.529727,-11.86568 -6.942894,-9.24236 -11.31232,-19.82934 -13.12068,-31.79099 -0.598087,-3.95613 -0.598087,-14.197027 0,-18.15315 1.163648,-7.697115 3.13857,-14.098315 6.383062,-20.689043 3.559351,-7.230321 7.052909,-12.15136 12.653035,-17.82311 5.628917,-5.700909 10.945826,-9.51687 18.31431,-13.144236 6.590728,-3.244492 12.991928,-5.219414 20.689043,-6.383062 3.956123,-0.598086 14.197035,-0.598086 18.153155,0 7.69712,1.163648 14.09832,3.13857 20.68904,6.383062 7.36416,3.625238 12.64339,7.415679 18.31414,13.14941 5.59075,5.652835 9.091,10.581805 12.65321,17.817936 3.24449,6.590728 5.21941,12.991928 6.38306,20.689043 0.59809,3.956123 0.59809,14.19702 0,18.15315 -1.16365,7.69711 -3.13857,14.09831 -6.38306,20.68904 -3.56221,7.23613 -7.06246,12.1651 -12.65321,17.81793 -5.54427,5.60585 -10.87606,9.46477 -17.93695,12.982 -11.27833,5.61806 -23.36411,7.92799 -36.008098,6.88214 z m 10.437538,-9.1302 c 6.56183,-0.78938 12.66723,-2.6381 19.10796,-5.78588 18.74457,-9.16104 31.58372,-27.5181 33.75403,-48.26059 0.439,-4.19568 0.16878,-13.07275 -0.50854,-16.706426 -2.34485,-12.57954 -7.77945,-23.245928 -16.29251,-31.976963 -3.68354,-3.777858 -6.16501,-5.854682 -10.27426,-8.598876 -7.55057,-5.042334 -16.42993,-8.368419 -25.59643,-9.588066 -4.40041,-0.585495 -11.815384,-0.584284 -16.007286,0.0026 -15.293865,2.141256 -28.942833,9.729242 -38.902911,21.627627 -13.371332,15.973495 -17.535807,38.075617 -10.93488,58.034694 1.244727,3.76366 4.587185,10.68427 6.772667,14.02292 4.819278,7.36216 11.923463,14.25201 19.386311,18.80143 11.92027,7.26671 25.340872,10.13036 39.495849,8.42752 z M 93.474871,153.26895 C 93.038308,153.21805 91.562307,153.0465 90.194869,152.8877 80.928991,151.81169 70.447664,147.28907 62.866984,141.0959 55.1126,134.76082 48.688845,125.53721 45.578772,116.27246 42.256045,106.37423 41.793455,95.294526 44.286667,85.324637 50.388555,60.924355 72.232068,43.903293 97.443621,43.903293 c 19.101219,0 36.394829,9.572 46.538089,25.758792 3.94459,6.294837 6.60645,13.687829 7.70115,21.389006 0.50518,3.553896 0.50518,11.423409 0,14.977309 -2.27381,15.99612 -10.96218,29.7226 -24.37591,38.51071 -5.49336,3.59901 -12.33877,6.42025 -18.68312,7.69997 -5.00408,1.00938 -11.523123,1.45257 -15.148959,1.02987 z m 9.524999,-7.5852 c 5.08826,-0.958 9.76526,-2.48103 13.74185,-4.47494 13.05868,-6.54776 22.48251,-18.28563 26.07043,-32.47206 1.34672,-5.32485 1.73262,-13.192852 0.9202,-18.762003 C 140.70804,69.242861 125.23589,52.848518 104.596,48.505718 100.23137,47.587365 92.772449,47.350352 88.235885,47.985863 c -3.745795,0.524736 -7.283457,1.416246 -10.732391,2.704624 -10.92806,4.082268 -20.504739,12.441909 -26.172187,22.846138 -2.412477,4.428796 -4.489654,10.602809 -5.385472,16.007291 -0.526592,3.176934 -0.450746,12.312744 0.128498,15.478114 1.855637,10.14041 6.149187,18.69603 12.970576,25.84603 7.955249,8.33849 17.807689,13.41446 29.186854,15.03703 3.298045,0.47028 11.768987,0.34331 14.768107,-0.22134 z M 87.42814,139.4213 C 67.53879,136.90289 52.215074,122.27791 48.751744,102.50849 48.191254,99.309104 48.107632,92.138332 48.594385,89.014749 50.049751,79.6754 54.025739,71.529064 60.373707,64.880284 69.054923,55.787693 80.125303,51.034822 92.582785,51.05189 c 21.329645,0.02922 39.216285,14.620218 43.618355,35.581609 0.72228,3.439303 0.99294,10.183833 0.55314,13.783711 -0.86113,7.04858 -3.19456,13.45775 -7.02275,19.28919 -1.87725,2.8596 -2.66249,3.81478 -5.51073,6.70334 -6.31544,6.40487 -13.88843,10.5147 -22.77869,12.36188 -3.571097,0.74199 -10.681575,1.07163 -14.01397,0.64968 z m 10.599732,-6.1122 c 14.745208,-2.84242 26.801018,-13.86548 30.898648,-28.25172 1.0939,-3.84055 1.47913,-6.739765 1.48127,-11.14784 0.004,-8.15487 -2.14275,-15.440156 -6.44843,-21.884149 C 117.83263,62.855976 109.23771,57.041914 98.369663,54.715144 94.349632,53.854485 86.7745,53.855019 82.759247,54.716244 69.141481,57.637095 58.299292,66.715729 53.362093,79.331749 47.237728,94.98134 51.7009,113.148 64.378209,124.17119 c 9.265309,8.05638 21.717844,11.438 33.649663,9.13791 z m -13.813418,-4.90412 c -9.27183,-1.40273 -17.348572,-5.76067 -22.741307,-12.27046 -5.770158,-6.96538 -8.608697,-14.68619 -8.608697,-23.415605 0,-5.704538 1.162529,-10.715124 3.685711,-15.885693 1.878668,-3.849817 4.078133,-6.904895 7.13543,-9.91118 4.968722,-4.885817 10.983131,-8.062748 18.097764,-9.559603 3.475992,-0.731316 9.465761,-0.791273 13.082811,-0.130956 12.031184,2.196375 21.972244,10.099652 26.805674,21.310884 2.1375,4.957973 3.05569,10.127265 2.8001,15.764048 -0.4117,9.079185 -3.71075,16.753795 -10.01586,23.299985 -5.09405,5.28882 -11.20118,8.68529 -18.534279,10.30778 -1.873912,0.41461 -9.968034,0.75394 -11.707347,0.4908 z m 7.630901,-4.72855 c 13.485025,-2.03257 24.124305,-12.23398 27.043455,-25.930431 0.56617,-2.656446 0.64654,-8.7498 0.15181,-11.509375 C 116.95941,74.627851 108.80642,64.894955 97.902321,61.002086 91.53305,58.728195 83.492224,58.616495 77.070676,60.7127 c -4.970391,1.622499 -8.932781,4.094781 -12.866298,8.02777 -5.032089,5.031404 -7.976549,10.599962 -9.251361,17.496154 -0.477494,2.583042 -0.416295,8.442264 0.116649,11.168012 1.661574,8.498134 6.509921,15.973344 13.489646,20.798424 3.891561,2.69023 8.619381,4.64823 12.877017,5.33294 1.091408,0.17552 2.16297,0.35411 2.38125,0.39688 1.180807,0.23135 5.762564,0.085 8.027776,-0.25645 z m -10.938192,-4.2722 c -6.366345,-1.21424 -11.193467,-3.67083 -15.644645,-7.96178 -10.26835,-9.89871 -11.802966,-25.719213 -3.640192,-37.527082 1.750601,-2.532332 5.702444,-6.306087 8.297321,-7.923403 2.791124,-1.739632 6.36144,-3.157915 9.666658,-3.840014 2.4028,-0.495866 3.345272,-0.5544 7.009399,-0.435329 4.669163,0.15173 6.708206,0.56851 10.401117,2.125982 4.529179,1.910167 9.787429,6.198835 12.447449,10.152231 3.71181,5.516605 5.2638,11.074117 4.99507,17.886818 -0.50562,12.818507 -9.04868,23.479617 -21.575641,26.924817 -1.630982,0.44856 -2.9533,0.57589 -6.66487,0.64175 -2.546614,0.0452 -4.927864,0.0254 -5.291666,-0.044 z m 9.868032,-4.427 c 9.575215,-2.47713 17.022185,-10.29031 19.020515,-19.955889 0.69115,-3.342942 0.56422,-8.894572 -0.27515,-12.0348 C 108.34828,78.60089 105.92498,74.437147 102.6231,71.135267 99.320265,67.832428 95.153697,65.407858 90.771829,64.238886 87.827515,63.453418 82.257546,63.268133 79.34295,63.858707 71.166168,65.515533 64.30121,70.7551 60.596231,78.166833 c -7.007602,14.018561 0.350189,31.427757 15.372258,36.372157 4.615861,1.51928 10.010806,1.67896 14.806706,0.43824 z M 78.880871,112.03891 C 71.43161,110.68717 65.06851,105.93814 61.857263,99.333498 60.289728,96.109514 59.713519,93.758511 59.55044,89.921368 59.247612,82.796043 61.487072,77.02278 66.47059,72.081417 c 3.420922,-3.391988 7.244551,-5.460437 11.769203,-6.366724 2.98839,-0.598578 8.311542,-0.409308 11.086677,0.394197 3.674307,1.063847 7.54027,3.336496 10.199894,5.996125 7.796536,7.796535 9.238226,19.474676 3.583006,29.023405 -1.5324,2.58743 -5.316213,6.31031 -8.046999,7.91742 -4.858937,2.85955 -10.830393,3.96409 -16.1815,2.99307 z m 6.352709,-2.9164 c 8.50079,-1.48242 15.2233,-7.76941 17.27335,-16.154299 0.65644,-2.684907 0.60025,-7.576105 -0.11746,-10.224944 -1.65022,-6.09034 -5.911316,-11.197132 -11.560432,-13.854797 -3.053281,-1.436436 -5.646044,-2.018085 -8.995833,-2.018085 -3.349683,0 -5.942451,0.581625 -8.995832,2.018 -6.814037,3.205464 -11.268879,9.49878 -12.117996,17.118978 -1.077152,9.666633 5.153615,19.289497 14.447399,22.312707 3.754438,1.22131 6.438126,1.43522 10.066804,0.80244 z m -7.104541,-2.80842 c -6.233615,-0.90672 -11.668185,-4.84017 -14.396831,-10.420175 -1.409609,-2.882614 -1.893907,-5.06391 -1.891732,-8.520427 0.0034,-5.453715 1.882803,-9.936855 5.745067,-13.704572 3.789284,-3.696517 9.159209,-5.689232 14.379953,-5.33623 4.994328,0.337693 8.725239,2.011871 12.174964,5.463286 2.540346,2.54159 3.915139,4.711433 4.948634,7.810444 0.630391,1.890276 0.70589,2.512851 0.70589,5.820833 0,3.307982 -0.0755,3.930557 -0.70589,5.820833 -2.353037,7.055758 -8.338391,12.060618 -15.637501,13.075818 -2.310752,0.3214 -3.054935,0.32003 -5.322554,-0.01 z m 6.085416,-2.77366 c 3.000891,-0.71052 5.34035,-2.08082 7.812037,-4.575753 3.488491,-3.521313 5.066841,-7.258684 5.095912,-12.066595 0.01709,-2.827456 -0.366719,-4.625075 -1.533096,-7.180389 -1.738411,-3.80852 -4.387804,-6.502587 -8.199854,-8.338118 -4.958071,-2.387349 -10.097546,-2.331725 -15.12954,0.163743 -4.190995,2.078402 -7.140998,5.489445 -8.705148,10.065638 -0.597067,1.746819 -0.726446,2.596798 -0.744683,4.892251 -0.02627,3.307321 0.333962,4.943216 1.738161,7.893272 1.232243,2.588805 4.045081,5.726331 6.414989,7.155481 3.959566,2.38777 8.617879,3.0875 13.251222,1.99047 z m -6.879166,-1.98388 C 69.375866,100.7653 63.326052,93.571768 63.783564,85.442874 c 0.232049,-4.122975 1.678003,-7.370569 4.535405,-10.186458 1.796772,-1.770671 4.541787,-3.343486 6.913491,-3.961238 1.991991,-0.518848 5.917832,-0.518848 7.909823,0 4.891725,1.274133 9.004867,5.167333 10.75399,10.178946 0.881117,2.524599 0.881948,6.792659 0.0019,9.47938 -2.312384,7.059057 -9.019743,11.352916 -16.562825,10.603046 z m 4.340999,-2.49816 c 6.17546,-1.455661 10.448239,-6.861616 10.447793,-13.218641 -2.65e-4,-3.884911 -1.260933,-6.902108 -4.044178,-9.679132 -2.725782,-2.719689 -5.658143,-3.927774 -9.564547,-3.94044 -3.866949,-0.01254 -6.720725,1.172242 -9.535418,3.958741 -6.731461,6.664039 -4.894667,17.800229 3.607783,21.873402 2.98761,1.431242 5.911649,1.754923 9.088567,1.00607 z m -7.119124,-2.072076 c -6.839106,-1.999848 -10.497875,-8.971642 -8.205282,-15.635186 1.317096,-3.828206 4.880869,-6.929184 8.945909,-7.784185 4.959657,-1.043167 9.960758,0.996358 12.743013,5.196798 2.114901,3.19292 2.483191,8.071416 0.8695,11.517727 -1.166604,2.491483 -3.340021,4.709671 -5.811366,5.931077 -1.789539,0.884439 -2.152835,0.965811 -4.646242,1.040691 -1.69409,0.05088 -3.149841,-0.04887 -3.895532,-0.266922 z m 6.29041,-2.297242 c 3.46172,-1.189379 5.922616,-4.078523 6.706462,-7.873532 1.513678,-7.328505 -5.925896,-13.937677 -13.201356,-11.727825 -3.014923,0.915755 -5.254687,2.869433 -6.612575,5.767943 -0.637162,1.36007 -0.723567,1.860463 -0.723567,4.190341 0,2.316898 0.08816,2.83392 0.709101,4.158739 2.320471,4.950873 7.894279,7.280455 13.121935,5.484334 z M 73.674043,92.982948 C 71.546821,92.177017 69.686865,90.392069 68.665621,88.176507 67.756862,86.20498 67.82459,82.916606 68.8156,80.894663 c 2.804848,-5.722686 10.198505,-6.825067 14.465109,-2.156722 4.033962,4.413798 2.758469,11.265955 -2.587114,13.898411 -1.555245,0.765887 -5.410425,0.956239 -7.019552,0.346596 z m 6.090544,-1.868278 c 4.47833,-2.17528 5.57368,-8.007707 2.221004,-11.826194 -2.104719,-2.397144 -6.12727,-3.181488 -8.883635,-1.73219 -2.770264,1.456602 -4.219493,3.847941 -4.218316,6.960547 5.3e-4,1.420791 0.14414,2.129342 0.616675,3.042708 2.060917,3.983558 6.334742,5.463841 10.264272,3.555129 z m -5.823866,-0.794734 c -2.414933,-0.770043 -4.410641,-3.575381 -4.410641,-6.199978 0,-2.464419 1.81143,-5.092777 4.1166,-5.97313 2.780958,-1.062056 6.337145,0.100049 7.864119,2.569871 3.149314,5.093898 -1.844495,11.428939 -7.570078,9.603237 z m 4.908232,-1.85755 c 2.992507,-2.103212 3.286228,-6.074203 0.630367,-8.522287 -2.285263,-2.106485 -5.097985,-2.145455 -7.362581,-0.102012 -1.340883,1.209937 -1.792908,2.256639 -1.792908,4.151622 0,3.361168 2.31975,5.518842 5.749245,5.347556 1.322951,-0.06607 1.870733,-0.23872 2.775877,-0.874879 z m -5.600752,-0.697383 c -1.630604,-0.873379 -2.477551,-2.468618 -2.32736,-4.383622 0.121831,-1.553387 0.687484,-2.503887 2.036572,-3.422168 4.081873,-2.7784 9.049626,2.236991 6.265472,6.325557 -1.385618,2.0348 -3.815403,2.63678 -5.974684,1.480233 z m 4.174607,-0.967333 c 1.012636,-0.721058 1.757041,-2.591133 1.524613,-3.830084 -0.475711,-2.535756 -3.45462,-3.891468 -5.632654,-2.563437 -1.237136,0.75433 -1.769784,1.723113 -1.769784,3.218897 0,1.46362 0.535791,2.374911 1.978175,3.364545 1.098137,0.753446 2.683227,0.676248 3.89965,-0.189921 z"
       id="portal-path" />
  </g>
</svg>
