<?xml version="1.0" encoding="UTF-8" standalone="no"?>
<svg
   xmlns:dc="http://purl.org/dc/elements/1.1/"
   xmlns:cc="http://creativecommons.org/ns#"
   xmlns:rdf="http://www.w3.org/1999/02/22-rdf-syntax-ns#"
   xmlns:svg="http://www.w3.org/2000/svg"
   xmlns="http://www.w3.org/2000/svg"
   xmlns:sodipodi="http://sodipodi.sourceforge.net/DTD/sodipodi-0.dtd"
   xmlns:inkscape="http://www.inkscape.org/namespaces/inkscape"
   width="207.03693mm"
   height="50mm"
   viewBox="0 0 207.03693 50"
   version="1.1"
   id="svg75"
   inkscape:version="1.0.2 (e86c8708, 2021-01-15)"
   sodipodi:docname="spotbot-logo.svg">
  <defs
     id="defs69">
    <rect
       x="20.108334"
       y="28.045834"
       width="240.24167"
       height="80.168747"
       id="rect364" />
    <clipPath
       clipPathUnits="userSpaceOnUse"
       id="clipPath265">
      <rect
         style="fill:#d40000;stroke-width:0.264583"
         id="rect267"
         width="100"
         height="100"
         x="58.139111"
         y="72.461914" />
    </clipPath>
    <clipPath
       clipPathUnits="userSpaceOnUse"
       id="clipPath269">
      <rect
         style="fill:#d40000;stroke-width:0.264583"
         id="rect271"
         width="100"
         height="100"
         x="58.139111"
         y="72.461914" />
    </clipPath>
    <clipPath
       clipPathUnits="userSpaceOnUse"
       id="clipPath273">
      <rect
         style="fill:#d40000;stroke-width:0.264583"
         id="rect275"
         width="100"
         height="100"
         x="58.139111"
         y="72.461914" />
    </clipPath>
    <clipPath
       clipPathUnits="userSpaceOnUse"
       id="clipPath277">
      <rect
         style="fill:#d40000;stroke-width:0.264583"
         id="rect279"
         width="100"
         height="100"
         x="58.139111"
         y="72.461914" />
    </clipPath>
    <clipPath
       clipPathUnits="userSpaceOnUse"
       id="clipPath265-3">
      <rect
         style="fill:#d40000;stroke-width:0.264583"
         id="rect267-5"
         width="100"
         height="100"
         x="58.139111"
         y="72.461914" />
    </clipPath>
    <clipPath
       clipPathUnits="userSpaceOnUse"
       id="clipPath269-9">
      <rect
         style="fill:#d40000;stroke-width:0.264583"
         id="rect271-8"
         width="100"
         height="100"
         x="58.139111"
         y="72.461914" />
    </clipPath>
    <clipPath
       clipPathUnits="userSpaceOnUse"
       id="clipPath273-9">
      <rect
         style="fill:#d40000;stroke-width:0.264583"
         id="rect275-1"
         width="100"
         height="100"
         x="58.139111"
         y="72.461914" />
    </clipPath>
    <clipPath
       clipPathUnits="userSpaceOnUse"
       id="clipPath277-2">
      <rect
         style="fill:#d40000;stroke-width:0.264583"
         id="rect279-8"
         width="100"
         height="100"
         x="58.139111"
         y="72.461914" />
    </clipPath>
  </defs>
  <sodipodi:namedview
     id="base"
     pagecolor="#ffffff"
     bordercolor="#666666"
     borderopacity="1.0"
     inkscape:pageopacity="0.0"
     inkscape:pageshadow="2"
     inkscape:zoom="1"
     inkscape:cx="274.22565"
     inkscape:cy="155.13143"
     inkscape:document-units="mm"
     inkscape:current-layer="layer1"
     inkscape:document-rotation="0"
     showgrid="false"
     inkscape:window-width="1726"
     inkscape:window-height="1162"
     inkscape:window-x="1819"
     inkscape:window-y="77"
     inkscape:window-maximized="0"
     inkscape:snap-global="false"
     fit-margin-top="0"
     fit-margin-left="0"
     fit-margin-right="0"
     fit-margin-bottom="0" />
  <metadata
     id="metadata72">
    <rdf:RDF>
      <cc:Work
         rdf:about="">
        <dc:format>image/svg+xml</dc:format>
        <dc:type
           rdf:resource="http://purl.org/dc/dcmitype/StillImage" />
        <dc:title></dc:title>
      </cc:Work>
    </rdf:RDF>
  </metadata>
  <g
     inkscape:label="Layer 1"
     inkscape:groupmode="layer"
     id="layer1"
     transform="translate(-19.292677,-30.014333)">
    <text
       xml:space="preserve"
       style="font-style:normal;font-weight:normal;font-size:35.2778px;line-height:0.95;font-family:sans-serif;letter-spacing:-1.00806px;fill:#000000;fill-opacity:1;stroke:none;stroke-width:0.264583"
       x="71.361908"
       y="66.561615"
       id="text97"><tspan
         sodipodi:role="line"
         id="tspan95"
         x="71.361908"
         y="66.561615"
         style="font-style:normal;font-variant:normal;font-weight:bold;font-stretch:normal;font-size:35.2778px;font-family:Mshtakan;-inkscape-font-specification:'Mshtakan Bold';stroke-width:0.264583"
         dx="2.02"
         dy="0.050000001"
         rotate="0 0 0 0 0 0 0 0 0">Spot<tspan
   style="font-size:7.05556px"
   id="tspan358"> </tspan>Bot</tspan></text>
    <g
       inkscape:label="Layer 1"
       id="layer1-9"
       transform="matrix(1.190405,0,0,1.1466278,-48.325615,-117.12237)">
      <path
         id="rect67"
         clip-path="url(#clipPath265-3)"
         style="fill:#000000;stroke-width:0.23898"
         d="m 114.17205,103.73017 h 3.05358 v 3.78088 h -3.05358 z m -1.90998,-1.3603 c -0.6756,-1.39643 -2.16795,-2.3427 -3.43386,-2.949602 4.70062,2.538312 3.51731,1.054372 3.6283,3.169962 -0.0152,0 -0.10276,-0.0992 -0.19444,-0.22036 z m -5.9044,17.80708 c -5.18214,-0.24685 -9.487415,-2.21675 -11.291109,-6.94361 -0.669817,-1.75537 -0.306881,-5.68732 0.133829,-7.38991 0.07273,-0.28099 0.07273,-0.28099 -0.119212,-0.51186 -2.565234,-3.08503 -4.115569,-7.656656 -3.413493,-10.065658 0.345724,-1.186249 1.154168,-2.078661 2.260147,-2.494887 l 0.390326,-0.146899 -0.821499,-0.336436 c -1.334854,-0.546671 -2.572447,-0.954143 -4.032915,-1.327817 l -0.796843,-0.20388 0.03326,-0.708031 c 0.143727,-3.057631 2.030929,-6.928992 4.781358,-9.80832 4.343183,-4.546746 10.493891,-7.230857 17.992721,-7.851851 2.43865,-0.201952 7.15625,-0.125388 10.34813,0.167946 6.84614,0.629156 9.60211,1.309909 15.21778,5.243876 5.42495,3.913121 6.41494,6.693217 6.67524,10.144118 0.65226,3.590421 -0.54819,13.543529 -4.10454,9.467865 -1.18799,-1.075834 -2.24936,-3.130205 -3.32701,-4.151355 -2.80247,-2.655579 -3.50403,-3.293746 -6.94389,-4.82081 -1.48048,-0.657231 3.40634,-3.152971 5.18963,-4.224196 -0.52582,-5.073604 -7.73338,-7.285464 -11.4712,-8.279163 -4.85099,-1.289631 -10.81582,0.266499 -16.32971,4.260162 -3.92357,2.841801 -6.765024,6.302571 -7.404778,9.018725 -0.107911,0.45814 -0.107911,0.45814 0.08776,0.853804 1.033708,2.090009 2.890408,4.407731 6.130458,7.652696 7.42316,5.879451 11.45004,14.130451 7.04353,20.626911 -0.66311,0.9044 -0.69248,0.92932 -1.37014,1.16214 -0.74763,0.25688 -1.46112,0.43113 -2.22475,0.54331 -0.52308,0.0769 -0.77068,0.097 -1.74204,0.14141 -0.14229,0.007 -0.54328,-0.002 -0.89109,-0.0184 z m -9.547073,-17.39482 c 0.76342,-1.47094 1.587564,-2.52328 2.634172,-3.363553 0.378339,-0.303743 1.174361,-0.849766 1.446241,-0.992026 0.10508,-0.05499 0.0903,-0.0844 -0.3394,-0.677018 -1.075182,-1.482788 -1.900769,-2.354893 -3.045379,-3.216989 -1.253973,-0.944463 -2.512556,-1.029817 -3.178595,-0.215567 -1.322121,1.616325 -0.141754,7.223413 1.858258,8.827213 0.115886,0.0929 0.24185,0.16896 0.279901,0.16896 0.03807,0 0.19322,-0.23896 0.344802,-0.53102 z m 18.342833,14.36886 c 4.96552,-7.69149 -11.82628,-19.564249 -8.77556,-18.850342 0.76191,0.178294 4.42042,-1.598716 8.02969,0.866494 5.96508,4.329058 6.52924,12.606368 1.20237,17.640958 -0.43213,0.40841 -0.53777,0.48776 -0.4565,0.34289 z m -10.47055,55.34788 c -4.37907,-0.40165 -7.437821,-2.32414 -9.312178,-6.57162 -2.545121,-5.76749 -2.904299,-11.93932 -0.884126,-15.19207 0.812287,-1.3079 0.812287,-1.3079 0.08487,-2.08307 -0.830893,-0.88541 -0.914755,-1.87374 -0.361296,-4.25786 0.376385,-1.62134 0.0043,-2.25691 -1.32128,-2.25691 -1.105712,0 -4.373298,-0.97919 -5.649939,-1.69311 -3.180507,-1.77858 -3.760601,-4.16291 -1.786246,-7.34188 0.442159,-0.71195 0.803925,-1.43614 0.803925,-1.60933 0,-0.41812 -1.987108,-1.72696 -4.477781,-2.94939 -2.016597,-0.98974 -2.016597,-0.98974 -2.185902,-2.69315 -0.632928,-6.3681 -2.403966,-11.10534 -5.073238,-13.57009 -1.69319,-1.56346 -2.846012,-1.87371 -5.006932,-1.34748 -1.460891,0.35574 -1.674593,0.11107 -1.281747,-1.46745 0.905086,-3.63682 4.025094,-4.8611 8.108674,-3.18178 9.852853,4.66654 -24.537726,-6.03917 18.220539,3.01139 1.086004,-3.54753 7.192417,-10.254816 11.084527,-11.546251 4.8021,-2.528955 7.7355,-6.458169 13.66609,-7.154155 2.28685,-0.234615 3.79142,-0.134623 3.79142,0.251969 0,0.106827 -0.35206,0.257076 -0.78234,0.333891 -3.03652,0.542078 -6.77323,3.885672 -7.67103,6.864005 0.3211,1.85755 -1.33851,7.923081 1.51477,3.749341 3.17153,-4.666505 8.71673,-8.330347 15.03746,-7.733661 l 1.47193,0.138952 -1.42518,-1.213665 c -1.82339,-1.552782 -2.83722,-2.001868 -3.75335,-1.662594 -1.96793,0.728792 -3.29456,-0.742252 -1.77974,-1.973487 2.32523,-1.889929 7.69016,1.211138 12.02943,6.953353 0.46462,0.614844 1.8201,5.974222 5.11827,10.794012 1.42607,2.084 2.43667,3.1098 6.57207,5.97648 5.08769,3.70321 11.82997,5.89568 7.8331,10.97966 -1.12109,1.42001 -3.33836,3.04979 -5.463,4.01554 -0.9375,0.42613 -1.70454,0.8193 -1.70454,0.87371 0,0.17391 1.94542,-0.18152 3.24719,-0.59329 1.74476,-0.55188 1.68468,-0.0747 -0.13254,1.05285 -2.38193,1.47784 -4.75752,2.24113 -7.88602,2.53383 -1.58469,0.14826 -11.03969,-3.86431 -11.9373,-4.25477 -0.79965,-0.34784 -0.89159,-0.14907 -1.50681,3.25758 -1.02148,5.65634 -0.68506,6.14731 2.87713,4.19889 1.98576,-1.08616 2.28586,-0.81135 0.6243,0.57168 -0.82679,0.68819 -0.97357,0.95761 -0.99403,1.82442 -0.024,1.01699 -0.024,1.01699 -2.12869,2.00253 -2.82392,1.32235 -2.81233,1.28122 -1.84459,6.55232 0.71453,3.89196 1.9359,7.25266 2.6358,7.25266 0.18479,0 0.75457,-0.47357 1.26619,-1.05239 1.88708,-2.13496 4.29383,-2.97189 5.62442,-1.95588 1.11465,0.8511 0.8785,1.28465 -0.69974,1.28465 -1.94153,0 -3.15441,0.97358 -3.15441,2.53203 0,2.04376 1.73511,3.28423 4.59466,3.28486 1.84578,4.4e-4 1.89264,0.28478 0.17496,1.06165 -1.49619,0.67669 -4.75849,0.88172 -6.12066,0.38468 -0.49615,-0.18106 -1.8167,-0.37847 -2.93453,-0.43872 -4.59783,-0.2478 -6.43293,-1.8613 -8.53851,-7.50735 -1.01736,-2.72801 -1.57441,-6.03304 -1.45361,-8.62424 0.0426,-0.91316 -0.003,-1.7256 -0.1012,-1.80542 -0.0982,-0.0798 -1.16757,0.24762 -2.37633,0.72769 -3.52206,1.3988 -6.94693,2.10644 -9.40054,1.94232 -1.01459,-0.0678 -1.01459,-0.0678 -1.17698,-3.83829 -0.36232,-8.41205 -1.7156,-11.41898 -5.13915,-11.41898 -0.89553,0 -2.19351,0.40273 -3.00994,0.93389 -0.2836,0.1845 -0.17202,0.28383 0.53015,0.47201 2.95258,0.79118 3.80713,5.30397 2.46726,13.02942 -1.3538,7.80584 -1.24193,8.12893 2.16364,6.24862 2.25224,-1.24349 2.67529,-1.07835 1.02981,0.40203 -0.77516,0.69741 -0.92777,0.99665 -0.92777,1.81935 0,0.98345 -0.002,0.98549 -1.59314,1.67481 -2.68242,1.16207 -2.91315,1.42215 -2.91315,3.28367 0,3.04686 1.67984,9.4521 2.77955,10.59841 0.40522,0.4224 0.41454,0.42154 0.86937,-0.0795 2.52762,-2.78386 4.9476,-3.8114 6.42201,-2.72687 0.91163,0.67057 0.71477,1.47356 -0.32937,1.34348 -1.90339,-0.23713 -3.64481,0.96433 -3.64481,2.51467 0,2.05527 2.10187,3.50725 4.72891,3.26677 1.64327,-0.15042 1.73819,0.11792 0.3183,0.89989 -2.12334,1.66332 -6.5445,0.79252 -7.82706,0.90074 z m 5.93338,-32.71564 c 5.16779,-2.99091 1.90457,-13.95019 -4.9542,-16.63824 -0.97782,-0.38323 -1.81588,-0.71709 -1.86234,-0.74194 -0.0465,-0.0247 0.32848,-0.51515 0.83322,-1.08963 0.50473,-0.57448 1.28683,-1.70976 1.738,-2.52285 0.96603,-1.741 0.7005,-1.7653 4.23276,0.3872 4.90657,2.98999 6.08009,4.24056 7.75224,8.26134 0.82319,1.97939 1.61909,3.16722 2.25513,3.3656 2.16769,0.67609 5.80754,-1.31308 6.86646,-3.75251 0.50241,-1.15741 0.69295,-0.99758 -3.24238,-2.7195 -5.73082,-2.50752 -10.7309,-5.38495 -15.00813,-8.63682 -5.21302,-5.71562 6.67731,-22.346978 -6.17391,-15.20534 -1.05102,0.73406 -0.62266,0.80262 0.5847,0.0936 -0.16935,7.61362 4.61955,18.45659 -3.15992,22.69978 -1.28781,0.68586 -2.127459,2.39721 -2.246955,4.57969 -0.116676,2.13103 -0.02232,2.3006 0.804743,1.44601 1.545732,-1.59722 4.942792,-2.30018 6.761012,-1.3991 2.00875,0.9955 3.52159,5.62067 3.52159,10.76651 0,1.64256 0.15014,1.77051 1.29798,1.1062 z m 12.39126,-2.93005 c 2.16928,-0.85836 5.91419,-3.84687 6.75386,-5.38971 0.53451,-0.98215 1.15101,-3.83671 0.9298,-4.30525 -0.12396,-0.26254 -2.02437,-1.07041 -2.14851,-0.91333 -0.0246,0.0312 -0.251,0.5092 -0.50301,1.06228 -0.65196,1.4308 -2.28526,2.83843 -4.19221,3.61297 -3.31037,1.34452 -4.31167,0.69587 -6.46428,-4.18764 -1.51406,-3.43489 -2.15165,-4.05183 -7.88764,-7.63229 -0.99596,-0.62168 -1.84135,-1.09781 -1.87866,-1.05808 -0.20283,0.21607 -1.7446,3.05829 -1.7446,3.21613 0,0.1028 0.44733,0.37288 0.99404,0.60021 4.94163,2.05475 8.28365,7.06191 8.28365,12.41093 0,3.40617 3.15624,4.44403 7.85756,2.58378 z m 24.99014,-7.96007 c 3.27001,-0.78116 6.90082,-2.81416 8.77451,-4.91312 1.34467,-1.50634 1.69184,-0.79037 -0.22161,-3.97675 -1.54115,-2.56639 -2.19057,0.0838 -12.92037,-9.70576 -7.87386,-7.18393 -5.85223,-13.049665 -7.26995,-14.590151 -4.79289,-5.207934 -8.56508,-7.401935 -10.20066,-5.93297 -0.82597,0.741815 -0.34394,1.148358 1.16195,0.980015 0.82288,-0.09199 1.51413,-0.05279 1.88065,0.106647 0.74987,0.326184 5.18706,3.673236 5.09775,3.845318 -0.0375,0.07215 1.43373,0.70146 -0.13254,0.668134 -4.56189,-0.09708 -11.0845,0.97686 -14.14019,3.384589 -8.29465,6.031488 -2.27742,11.393288 2.0878,18.241748 1.10815,1.69984 3.19394,3.17666 7.27251,5.14919 6.79695,3.28723 14.76959,7.66056 18.61015,6.74311 z m -66.435159,-7.11604 c 0.755941,-1.18231 0.923805,-4.19899 0.345419,-6.20745 -1.262656,-4.38465 -5.566851,-8.36059 -9.018636,-8.33086 -1.607264,0.0139 -3.595986,1.31891 -3.999082,2.62432 -0.171672,0.55593 -0.171672,0.55593 1.52348,0.44534 1.974725,-0.12884 2.740264,0.12069 4.229221,1.3785 2.311935,1.95303 3.764879,4.78058 4.575949,8.90517 0.589698,2.99882 0.564719,2.9494 1.239801,2.45317 0.304059,-0.2235 0.800789,-0.79417 1.103848,-1.26819 z m -12.257362,34.22125 c -0.502882,-0.17806 -1.204855,-0.50949 -1.559939,-0.73651 -0.384115,-0.24558 -1.062047,-0.41277 -1.673765,-0.41277 -0.565485,0 -1.235284,-0.0898 -1.488443,-0.19971 -0.253158,-0.10983 -1.235636,-0.48402 -2.183285,-0.83157 -5.351325,-1.96246 -5.844676,-4.99087 -1.637137,-10.04951 2.959259,-3.55784 4.065673,-5.40024 4.93447,-8.21689 0.221798,-0.71906 0.765306,-1.95637 1.207793,-2.74955 0.743686,-1.33313 0.774157,-1.47985 0.402919,-1.94037 -0.532167,-0.66014 -1.081133,-4.05898 -1.467132,-9.08356 -0.576468,-7.50385 -0.01442,-9.80388 2.395751,-9.80388 3.61466,0 5.003779,3.33631 5.953426,14.29865 0.478024,5.5181 0.501843,5.55111 3.366906,4.66627 1.661036,-0.51298 1.874609,-0.41789 0.906318,0.40358 -0.675198,0.57282 -0.708911,0.68259 -0.446036,1.45207 0.436011,1.27631 0.407433,1.31628 -1.501947,2.1006 -2.601793,1.06877 -2.928482,1.42914 -3.257025,3.59289 -0.458758,3.02132 -1.051535,5.16303 -2.002214,7.23406 -1.243459,2.70885 -1.237966,2.72551 0.691797,2.09793 1.842049,-0.59907 4.103118,0.0315 3.91642,1.09217 -0.06987,0.39694 -0.232982,0.43549 -1.575727,0.37229 -2.572508,-0.12107 -3.936282,0.90915 -3.936282,2.97356 0,1.48148 2.179163,3.22474 4.042419,3.23378 0.400928,0.002 0.72896,0.10291 0.72896,0.22435 0,0.66127 -4.17562,0.86373 -5.818247,0.28212 z M 67.76193,103.39307 c -4.913206,-4.094026 -6.779483,-9.453471 -5.149442,-14.787824 5.466595,-12.172146 5.573408,7.149843 9.50463,11.756484 1.003114,1.19211 3.467634,2.2187 6.859843,4.4278 3.49487,2.27596 3.998518,1.91594 8.068913,1.83599 7.787352,-0.15296 9.894482,0.31226 8.235402,1.27947 9.029254,16.10142 -21.909235,-3.67208 -24.390078,-7.10585 -2.48786,-3.443486 -3.823005,-6.463228 -4.138279,-11.085626 -0.181479,-2.660758 -0.919554,-5.813425 -1.736313,-4.526756 -0.640368,1.008798 -1.070423,1.849153 -0.949354,3.708447 0.447634,6.874465 1.391822,7.121355 3.168126,10.25363 2.062174,2.227375 5.3304,3.846235 8.368458,6.104875 -0.640793,0.42208 -5.235081,-0.19654 -7.841906,-1.86064 z m 0.983132,-8.295014 c -6.324331,-11.077997 -3.162166,-5.538998 0,0 z"
         transform="matrix(0.42002513,0,0,0.4360613,32.382875,96.723405)" />
    </g>
    <text
       xml:space="preserve"
       id="text362"
       style="font-size:10.58329999999999949px;line-height:1.25;font-family:sans-serif;word-spacing:0.00264583000000000px;white-space:pre;shape-inside:url(#rect364);" />
  </g>
</svg>
