<?xml version="1.0" standalone="no"?>
<!DOCTYPE svg PUBLIC "-//W3C//DTD SVG 20010904//EN"
 "http://www.w3.org/TR/2001/REC-SVG-20010904/DTD/svg10.dtd">
<svg version="1.0" xmlns="http://www.w3.org/2000/svg"
 width="700.000000pt" height="700.000000pt" viewBox="0 0 700.000000 700.000000"
 preserveAspectRatio="xMidYMid meet">
<metadata>
Created by potrace 1.11, written by Peter Selinger 2001-2013
</metadata>
<g transform="translate(0.000000,700.000000) scale(0.100000,-0.100000)"
fill="#000000" stroke="none">
<path d="M3630 6997 c-3 -3 -31 -8 -62 -11 -31 -3 -63 -8 -70 -11 -7 -2 -29
-6 -48 -9 -145 -22 -399 -112 -559 -197 -327 -175 -576 -442 -692 -744 -36
-91 -69 -261 -58 -291 5 -15 23 -24 66 -33 79 -18 285 -90 302 -106 11 -11 9
-14 -10 -20 -38 -12 -78 -44 -110 -88 -51 -71 -65 -158 -43 -277 32 -171 99
-323 209 -470 22 -30 40 -59 40 -65 0 -5 -4 -27 -9 -48 -7 -37 -8 -38 -39 -31
-18 4 -203 8 -412 9 -209 1 -398 5 -420 9 -51 8 -145 52 -232 108 -38 24 -151
93 -253 153 -107 64 -205 130 -232 156 -88 88 -142 225 -248 634 -95 363 -143
468 -220 482 -49 8 -143 -108 -202 -248 -67 -159 -71 -378 -11 -559 71 -215
257 -456 413 -535 64 -32 211 -82 267 -90 15 -2 44 -6 63 -9 59 -10 114 -13
139 -6 22 5 11 15 -90 83 -63 43 -153 104 -201 135 -187 123 -270 202 -334
317 -6 11 -25 46 -43 78 -18 31 -41 82 -51 113 -17 49 -24 78 -45 199 -9 54
-19 189 -19 265 0 86 24 163 65 213 23 27 29 30 43 18 18 -15 51 -115 61 -183
3 -23 8 -54 10 -68 2 -14 7 -59 10 -100 14 -180 64 -366 141 -515 45 -90 128
-218 168 -264 33 -37 201 -169 325 -255 62 -43 111 -79 109 -81 -2 -2 -23 0
-48 5 -140 26 -302 31 -366 10 -99 -31 -189 -127 -218 -234 -27 -98 -27 -105
-7 -125 18 -18 23 -18 87 -4 120 25 174 20 254 -23 163 -89 321 -350 386 -636
2 -10 6 -28 9 -40 18 -74 41 -215 50 -296 17 -159 21 -166 136 -226 150 -78
203 -108 220 -122 8 -8 20 -14 25 -14 5 0 29 -18 53 -39 l43 -39 -18 -38 c-10
-22 -31 -61 -47 -87 -120 -197 -91 -359 83 -475 97 -66 290 -132 425 -147 81
-9 109 -23 115 -60 5 -28 -1 -86 -15 -145 -3 -14 -8 -54 -11 -90 -6 -74 6
-112 55 -174 17 -21 31 -42 31 -45 0 -7 -14 -34 -52 -101 -117 -211 -111 -551
17 -920 100 -287 237 -451 445 -534 50 -20 49 -20 140 -40 98 -23 508 -22 576
1 53 17 169 91 160 101 -4 3 -55 6 -114 7 -92 1 -115 5 -162 27 -235 108 -171
377 89 378 72 0 88 10 76 46 -15 41 -57 67 -118 72 -94 8 -205 -55 -347 -196
l-54 -54 -27 32 c-39 47 -96 199 -135 362 -57 235 -72 424 -40 487 15 27 82
81 103 81 16 0 169 78 179 91 7 8 14 41 17 73 5 56 8 62 66 120 103 104 84
108 -89 20 -172 -87 -192 -81 -191 56 0 45 3 85 5 88 2 4 7 32 11 62 3 30 8
62 10 70 3 8 7 31 9 50 3 19 14 91 25 160 26 166 34 245 35 365 4 297 -65 457
-216 505 -21 6 -38 17 -38 25 0 13 75 46 146 65 100 25 213 -10 276 -85 45
-53 93 -183 113 -305 3 -19 8 -46 10 -60 13 -76 18 -146 30 -375 7 -152 15
-203 33 -221 39 -39 373 4 572 74 30 11 108 38 174 61 65 23 121 39 125 36 3
-4 7 -67 8 -140 2 -221 31 -384 102 -584 134 -375 270 -502 561 -526 110 -10
197 -23 263 -39 55 -14 236 -15 293 -2 86 19 173 55 194 81 15 18 -2 22 -115
29 -106 7 -172 28 -222 70 -50 44 -73 90 -74 153 -2 59 19 103 63 136 42 31
60 37 158 46 45 5 83 11 87 14 13 14 -9 54 -44 77 -29 20 -49 25 -98 25 -89 0
-167 -42 -279 -149 -49 -48 -96 -86 -103 -86 -23 0 -70 87 -107 201 -45 137
-106 436 -112 549 -7 119 2 133 153 209 156 78 153 76 159 141 6 62 29 101 84
145 41 32 65 64 56 72 -3 3 -50 -16 -103 -43 -155 -76 -192 -85 -223 -54 -19
19 -21 31 -19 103 1 45 5 97 10 117 4 19 10 53 12 75 9 68 49 249 58 268 6 9
16 17 25 17 8 0 98 -34 199 -75 377 -154 603 -230 670 -227 158 6 371 72 525
162 157 92 158 119 3 80 -128 -32 -183 -41 -183 -31 0 4 42 27 93 51 183 88
349 217 419 324 38 59 38 59 38 164 0 104 0 105 -36 153 -47 65 -126 126 -334
259 -387 249 -562 388 -667 531 -125 170 -231 382 -339 673 -49 134 -92 195
-249 350 -270 269 -529 369 -653 253 -14 -12 -28 -31 -32 -42 -10 -26 5 -67
31 -83 25 -16 95 -18 131 -4 67 27 150 -14 312 -153 l46 -41 -152 3 c-84 1
-175 -2 -203 -8 -27 -6 -61 -12 -75 -15 -40 -8 -139 -44 -210 -76 -159 -73
-328 -210 -448 -360 l-27 -35 -70 64 -69 64 2 55 c3 149 229 398 435 482 33
13 70 26 83 28 13 2 36 9 51 15 27 10 27 11 9 24 -14 11 -48 13 -145 10 -131
-4 -147 -6 -246 -31 -151 -39 -263 -99 -529 -286 -93 -66 -198 -135 -233 -154
l-63 -36 -31 34 c-17 18 -64 67 -104 110 -98 103 -197 228 -253 318 -38 61
-46 83 -46 121 1 99 112 278 275 439 114 114 115 115 222 194 248 183 498 293
756 331 84 12 266 12 326 0 225 -46 496 -151 636 -246 118 -79 217 -202 234
-288 2 -12 7 -31 10 -41 5 -16 -16 -32 -117 -91 -178 -105 -254 -162 -260
-195 -2 -15 16 -28 82 -62 114 -58 156 -83 217 -129 110 -82 219 -193 301
-303 109 -146 157 -198 206 -220 40 -19 56 -17 92 10 41 30 94 152 108 245 3
22 8 51 10 65 16 84 22 268 11 370 -28 264 -90 396 -267 565 -253 243 -624
448 -888 489 -31 5 -113 19 -120 21 -3 1 -39 5 -80 9 -41 4 -88 10 -105 13
-39 7 -898 16 -905 10z m1364 -1221 c97 -47 228 -149 374 -294 130 -128 143
-150 157 -281 22 -204 97 -404 218 -580 92 -135 363 -393 617 -588 135 -104
226 -162 358 -230 59 -30 115 -62 126 -71 29 -26 136 -213 136 -238 0 -32
-149 -179 -251 -246 -107 -71 -219 -127 -339 -169 -245 -85 -448 -26 -1225
356 -513 252 -587 303 -703 473 -33 48 -96 141 -140 207 l-82 120 17 60 c23
84 23 288 -1 375 -18 68 -79 202 -116 257 l-22 33 89 88 c130 131 242 197 430
256 79 24 245 60 328 70 124 15 160 18 273 21 67 1 126 5 129 9 4 3 -11 21
-33 40 -21 19 -52 46 -69 60 -45 39 -248 184 -282 201 -31 16 -54 18 -156 15
-103 -3 -122 32 -44 81 45 29 117 20 211 -25z m-2290 -292 c66 -32 165 -124
240 -222 l56 -74 -58 -38 c-93 -62 -156 -136 -236 -274 l-23 -38 -35 31 c-77
68 -151 277 -151 431 -1 100 14 150 52 183 39 32 90 33 155 1z m-1549 -940
c215 -68 446 -328 510 -574 33 -124 26 -305 -14 -395 -31 -71 -103 -142 -128
-127 -9 6 -28 80 -49 192 -23 118 -76 278 -122 365 -106 199 -290 352 -417
347 -109 -4 -177 -3 -182 1 -12 12 9 59 43 97 93 103 223 137 359 94z m2730
-784 c143 -97 505 -287 760 -399 174 -76 219 -101 223 -125 6 -27 -43 -117
-87 -162 -107 -109 -217 -161 -340 -162 -72 0 -74 1 -110 37 -20 21 -48 62
-63 92 -44 88 -98 209 -98 217 0 4 -26 48 -58 97 -69 106 -157 190 -295 283
-95 63 -98 66 -75 78 12 7 36 28 52 48 16 20 33 33 40 29 6 -3 29 -19 51 -33z
m-112 -139 c132 -87 138 -92 220 -174 61 -61 76 -86 161 -260 52 -106 110
-213 129 -238 65 -85 147 -101 275 -56 155 54 282 159 340 279 35 74 28 72
120 35 67 -28 74 -51 48 -167 -4 -14 -8 -37 -11 -51 -9 -49 -36 -113 -62 -148
-63 -86 -258 -246 -383 -314 -157 -85 -362 -119 -472 -77 -101 38 -148 116
-148 247 0 215 -110 471 -273 633 -87 88 -150 133 -269 195 -109 56 -114 63
-82 113 12 18 24 22 67 22 64 1 152 10 186 20 43 13 45 12 154 -59z m-502 49
c21 0 39 -4 39 -9 0 -5 -25 -41 -56 -81 -31 -39 -55 -73 -53 -74 2 -2 49 -23
104 -46 55 -23 125 -59 155 -80 147 -100 283 -284 342 -464 97 -296 42 -537
-146 -637 -60 -31 -69 -22 -72 83 -4 100 -15 251 -20 259 -1 3 -6 28 -10 55
-18 137 -87 311 -153 386 -54 61 -111 83 -211 82 -123 -2 -229 -40 -315 -114
-25 -22 -50 -40 -54 -40 -14 0 -18 30 -15 103 8 184 56 285 173 358 82 53 140
106 187 175 24 35 43 53 52 49 7 -3 31 -5 53 -5z"/>
<path d="M660 4227 c-99 -25 -137 -138 -134 -397 1 -112 11 -295 19 -355 3
-16 7 -57 9 -90 19 -228 57 -426 92 -480 17 -26 12 -42 -45 -155 -21 -41 -56
-122 -76 -180 -70 -197 -125 -288 -319 -535 -69 -88 -143 -194 -165 -237 -40
-77 -41 -83 -41 -175 0 -110 11 -136 84 -200 87 -76 342 -181 460 -189 55 -4
89 -14 154 -44 105 -50 185 -64 321 -57 145 7 225 38 134 52 -87 13 -131 28
-183 63 -105 72 -140 175 -90 272 35 69 106 100 232 101 107 1 128 6 128 33 0
47 -76 86 -169 86 -25 0 -78 -9 -119 -21 -111 -31 -114 -22 -37 146 65 143
109 299 145 524 21 126 43 154 170 213 47 22 104 49 127 59 22 11 44 27 47 35
3 9 -1 43 -10 76 l-15 61 42 43 c24 24 40 46 36 50 -3 4 -48 -5 -99 -20 -123
-35 -159 -34 -180 2 -22 38 -34 98 -43 206 -3 39 -8 89 -10 111 -3 22 -7 63
-9 90 -41 459 -111 733 -215 840 -60 63 -161 93 -241 72z"/>
</g>
</svg>
