<?xml version="1.0" standalone="no"?>
<!DOCTYPE svg PUBLIC "-//W3C//DTD SVG 20010904//EN"
 "http://www.w3.org/TR/2001/REC-SVG-20010904/DTD/svg10.dtd">
<svg version="1.0" xmlns="http://www.w3.org/2000/svg"
 width="652.000000pt" height="652.000000pt" viewBox="0 0 652.000000 652.000000"
 preserveAspectRatio="xMidYMid meet">
<metadata>
Created by potrace 1.11, written by Peter Selinger 2001-2013
</metadata>
<g transform="translate(0.000000,652.000000) scale(0.100000,-0.100000)"
fill="#000000" stroke="none">
<path d="M1356 6505 c-56 -16 -196 -84 -196 -97 0 -4 -6 -8 -12 -8 -26 -1
-163 -145 -153 -161 4 -5 1 -9 -4 -9 -6 0 -11 -4 -11 -9 0 -5 -9 -29 -20 -55
-12 -25 -19 -47 -18 -49 2 -2 -3 -11 -11 -20 -7 -10 -10 -17 -7 -17 4 0 1 -10
-6 -22 -7 -13 -13 -25 -13 -28 -8 -34 -39 -127 -46 -134 -5 -6 -9 -16 -9 -23
0 -24 -63 -109 -109 -147 -78 -66 -183 -168 -240 -236 -11 -14 -33 -38 -47
-55 -14 -16 -39 -56 -54 -88 -25 -52 -28 -67 -24 -134 2 -55 10 -89 28 -122
13 -26 29 -65 36 -88 12 -40 11 -44 -18 -90 -48 -77 -70 -168 -79 -333 -7
-133 5 -183 48 -200 20 -9 35 -26 46 -51 11 -29 23 -41 50 -50 51 -16 205 -14
353 6 110 15 131 14 151 -6 22 -22 15 -49 -25 -102 -14 -18 -25 -34 -25 -37 0
-3 -13 -35 -29 -71 -37 -82 -91 -238 -97 -281 -7 -50 -15 -135 -20 -213 -4
-70 -13 -150 -21 -189 -6 -29 -6 -215 0 -246 3 -14 8 -45 11 -70 6 -46 9 -62
20 -115 22 -106 55 -201 93 -265 65 -110 85 -177 82 -280 -7 -255 -2 -411 16
-490 3 -14 7 -36 10 -50 3 -14 10 -43 16 -65 5 -22 12 -76 15 -120 2 -44 4
-84 5 -90 1 -13 -12 -169 -18 -215 -2 -19 -6 -57 -9 -85 -3 -27 -8 -61 -10
-75 -2 -14 -7 -51 -10 -83 -4 -32 -8 -68 -11 -80 -2 -12 -7 -38 -10 -57 -18
-121 -65 -216 -177 -360 -57 -73 -80 -96 -157 -160 -30 -25 -68 -60 -85 -79
-16 -19 -35 -39 -40 -45 -17 -18 -38 -76 -30 -84 9 -9 205 -8 272 2 28 4 58 4
65 0 7 -5 24 -10 38 -11 32 -4 210 -4 230 0 36 7 60 19 61 30 1 7 2 26 3 43 1
16 11 39 22 50 11 11 36 53 57 95 20 41 53 93 73 115 58 64 66 87 60 168 -9
120 -9 149 5 196 7 25 13 47 13 50 1 3 4 10 7 15 4 6 10 30 14 55 9 55 13 77
20 110 3 14 7 49 10 78 2 29 7 57 10 62 3 5 1 11 -5 15 -6 4 -8 10 -5 14 2 5
7 48 9 97 5 93 8 118 31 249 8 44 17 95 20 113 3 17 8 47 11 65 5 32 7 48 18
144 13 116 18 160 21 203 6 57 14 140 21 205 7 55 26 95 46 91 30 -5 62 -20
140 -64 134 -76 143 -78 473 -87 247 -7 323 -23 381 -79 46 -44 51 -62 79
-281 7 -59 26 -138 36 -150 13 -17 55 -173 74 -270 19 -101 21 -170 10 -395
-3 -85 -6 -177 -5 -205 3 -188 -11 -292 -55 -391 -13 -28 -28 -85 -35 -125
-14 -84 -23 -103 -81 -156 -88 -80 -152 -218 -120 -257 12 -14 80 -13 122 2
25 9 52 5 45 -7 -3 -3 3 -17 12 -29 14 -18 27 -22 67 -22 79 1 126 0 184 -4
38 -2 69 2 99 15 24 11 63 19 87 19 71 0 74 11 80 290 9 411 15 670 20 795 3
72 7 198 10 280 3 83 7 193 9 245 10 208 19 439 20 506 l1 72 60 -62 c56 -58
100 -96 109 -96 2 0 28 -16 58 -35 29 -20 127 -72 217 -117 91 -45 176 -93
189 -107 51 -55 95 -174 96 -261 1 -146 -92 -304 -202 -343 -28 -10 -57 -20
-64 -21 -96 -20 -178 -47 -187 -64 -17 -31 51 -108 103 -117 17 -2 65 -3 106
-2 41 1 87 -1 102 -4 20 -6 36 -2 60 14 29 20 37 21 68 10 19 -6 47 -12 62
-12 33 -1 68 30 68 59 0 11 18 40 40 64 36 39 40 49 44 105 3 56 7 66 40 100
34 35 37 43 40 107 3 47 17 108 45 191 46 140 51 173 27 227 -17 40 -119 146
-140 146 -4 0 -14 6 -21 13 -8 6 -56 43 -108 81 -97 72 -118 102 -131 186 -3
19 -12 69 -19 111 -8 42 -12 86 -10 99 4 29 68 102 195 225 115 111 165 155
178 155 8 0 81 -71 115 -111 71 -87 95 -119 95 -128 0 -6 4 -11 8 -11 4 0 32
-34 62 -77 168 -235 214 -286 360 -395 83 -62 164 -144 290 -293 46 -55 99
-116 116 -135 18 -19 42 -46 53 -60 11 -14 25 -30 30 -36 9 -11 111 -221 111
-229 0 -6 15 -40 80 -180 48 -105 50 -118 54 -301 2 -76 4 -149 5 -161 2 -32
42 -54 106 -59 31 -3 67 -9 80 -14 13 -5 34 -7 47 -3 13 3 73 6 134 7 134 1
148 10 148 90 0 43 -6 60 -40 111 -23 33 -74 116 -114 185 -70 119 -114 184
-152 222 -18 18 -33 65 -43 133 -13 82 -46 150 -106 216 -13 14 -37 50 -52 80
-16 30 -61 89 -102 131 -50 53 -78 92 -90 125 -9 26 -21 57 -26 68 -10 24 -59
205 -57 214 1 3 -1 13 -5 21 -3 8 -13 38 -23 65 -17 48 -41 95 -55 105 -4 3
-24 39 -46 80 -49 93 -95 228 -118 345 -12 61 -34 186 -40 225 -3 25 -11 70
-17 100 -6 30 -12 60 -13 65 -6 53 -61 165 -110 223 -11 13 -28 33 -38 45
-125 148 -381 407 -403 407 -7 0 -14 3 -16 8 -4 9 -74 62 -83 62 -3 0 -22 10
-43 23 -107 67 -329 144 -647 223 -195 49 -210 53 -240 59 -11 3 -31 7 -45 10
-14 4 -36 8 -50 11 -14 3 -34 8 -45 11 -24 7 -58 11 -150 18 -38 2 -70 5 -70
5 0 1 -13 4 -28 6 -16 3 -57 18 -93 34 -35 17 -69 30 -74 30 -6 0 -10 5 -10
10 0 6 -6 10 -14 10 -8 0 -31 9 -53 19 -21 11 -76 37 -123 59 -75 35 -130 77
-130 100 0 15 -126 137 -194 187 -15 11 -34 36 -44 55 -9 19 -23 46 -33 60 -9
14 -53 86 -99 160 -46 74 -89 142 -97 151 -7 9 -11 18 -8 20 8 9 18 123 17
207 -1 113 -10 182 -25 200 -7 9 -13 49 -14 96 -2 97 -9 144 -30 194 -8 20
-20 48 -26 62 -6 14 -10 27 -9 30 1 9 -71 145 -93 175 -92 125 -221 218 -355
256 -63 17 -196 19 -254 4z m259 -50 c54 -26 115 -79 157 -135 34 -47 79 -130
70 -130 -4 0 -21 26 -39 58 -43 79 -131 166 -206 202 -34 17 -67 30 -74 30 -6
0 -14 4 -18 9 -8 14 50 -4 110 -34z m-146 -59 c96 -9 214 -82 282 -176 14 -19
41 -62 59 -95 l32 -60 -48 55 c-92 103 -115 123 -125 113 -5 -5 -11 -74 -14
-152 -4 -131 -6 -148 -31 -195 -30 -59 -53 -88 -65 -81 -30 19 -168 30 -430
35 -23 0 -25 3 -24 43 2 52 16 104 66 236 22 57 38 105 36 107 -2 2 -26 -22
-54 -54 -72 -81 -166 -179 -160 -167 2 6 12 28 21 50 63 146 83 179 139 231
32 30 65 54 73 54 8 0 14 4 14 8 0 5 6 9 14 9 8 0 30 7 50 17 20 10 46 18 56
19 11 1 20 4 20 8 0 4 8 6 18 4 9 -2 41 -6 71 -9z"/>
</g>
</svg>
