<?xml version="1.0" standalone="no"?>
<!DOCTYPE svg PUBLIC "-//W3C//DTD SVG 20010904//EN"
 "http://www.w3.org/TR/2001/REC-SVG-20010904/DTD/svg10.dtd">
<svg version="1.0" xmlns="http://www.w3.org/2000/svg"
 width="640.000000pt" height="640.000000pt" viewBox="0 0 640.000000 640.000000"
 preserveAspectRatio="xMidYMid meet">
<metadata>
Created by potrace 1.14, written by Peter Selinger 2001-2017
</metadata>
<g transform="translate(0.000000,640.000000) scale(0.100000,-0.100000)"
fill="#000000" stroke="none">
<path d="M3719 6395 c-2 -1 -20 -5 -39 -8 -82 -11 -152 -32 -174 -52 -22 -20
-32 -22 -98 -17 -106 8 -401 7 -483 -1 -38 -4 -97 -9 -130 -12 -33 -2 -82 -6
-110 -9 -27 -3 -81 -8 -120 -11 -38 -2 -95 -7 -125 -10 -30 -3 -84 -8 -119
-10 -35 -3 -65 -6 -65 -7 -1 -2 -14 -20 -29 -40 -15 -20 -27 -41 -27 -47 0 -5
-6 -14 -13 -18 -8 -4 -22 -21 -33 -38 -25 -40 -30 -46 -97 -118 -93 -99 -205
-241 -263 -334 -51 -82 -73 -124 -124 -238 -44 -99 -48 -111 -65 -165 -9 -30
-19 -62 -22 -70 -3 -8 -7 -19 -8 -25 -49 -197 -77 -300 -85 -316 -6 -10 -8
-19 -4 -19 10 0 -46 -92 -75 -123 -14 -15 -46 -40 -71 -54 -25 -14 -47 -29
-50 -32 -4 -5 -34 -23 -95 -55 -11 -6 -22 -14 -25 -17 -3 -4 -25 -17 -49 -30
-24 -13 -51 -28 -60 -34 -9 -5 -55 -32 -101 -60 -47 -27 -86 -53 -88 -57 -2
-4 -8 -8 -14 -8 -20 0 -380 -228 -446 -283 -76 -63 -122 -112 -131 -138 -11
-31 -8 -201 4 -274 18 -110 85 -344 135 -475 11 -30 26 -68 32 -85 67 -176
258 -469 362 -555 10 -8 28 -24 40 -36 50 -49 151 -117 244 -164 55 -27 102
-50 105 -50 3 0 18 -5 34 -12 15 -6 30 -12 33 -13 3 0 35 -11 72 -23 37 -12
75 -24 85 -25 10 -2 25 -6 33 -9 8 -3 42 -11 75 -18 33 -7 74 -16 90 -20 28
-8 92 -21 125 -26 8 -1 40 -7 70 -13 72 -14 120 -23 145 -26 11 -2 65 -11 120
-20 55 -10 109 -19 120 -21 11 -1 29 -5 40 -7 11 -3 41 -7 66 -11 25 -4 59 -9
75 -12 16 -3 38 -7 50 -8 53 -7 70 -40 94 -186 5 -30 12 -77 15 -105 3 -27 7
-70 10 -94 12 -118 34 -215 62 -279 48 -111 198 -407 220 -433 19 -24 134
-252 162 -321 l28 -68 47 93 c26 50 57 110 70 132 12 22 38 67 56 100 18 33
39 67 46 76 8 8 14 19 14 22 0 18 241 380 308 463 9 12 24 32 32 44 16 24 177
227 195 246 5 6 32 37 59 68 129 151 355 377 509 511 32 28 68 59 81 70 12 11
37 31 55 45 18 14 40 32 49 41 21 19 174 135 225 169 20 14 37 28 37 33 0 4 5
7 12 7 6 0 35 18 65 40 29 23 53 37 53 33 0 -4 4 -3 8 3 4 6 57 41 117 78 61
37 117 71 125 76 8 5 31 17 50 27 19 9 37 19 40 22 13 15 302 151 319 151 22
0 20 21 -4 59 -14 23 -25 45 -25 51 0 5 -4 10 -8 10 -5 0 -15 12 -23 28 -8 15
-16 29 -19 32 -3 3 -43 61 -89 130 -73 109 -151 252 -188 346 -15 40 -55 154
-57 168 -2 6 -10 36 -20 67 -16 53 -19 68 -31 129 -3 14 -7 36 -10 50 -3 14
-8 36 -11 50 -2 14 -7 39 -11 55 -3 17 -7 39 -9 50 -2 11 -5 30 -8 41 -2 12
-7 37 -10 55 -7 43 -12 66 -25 107 -5 17 -8 32 -5 32 3 0 0 8 -5 18 -6 11 -12
30 -15 43 -48 243 -103 453 -127 484 -4 6 -13 30 -20 55 -15 55 -14 52 -22 70
-19 51 -49 138 -53 154 -12 64 -38 127 -69 170 -40 56 -41 63 -18 88 23 25 20
86 -11 195 -36 126 -41 139 -94 218 -80 119 -167 199 -266 246 -87 40 -169 69
-216 75 -14 1 -36 6 -50 9 -26 7 -355 16 -361 10z"/>
<path d="M5605 3046 c-38 -14 -156 -75 -172 -88 -7 -6 -13 -7 -13 -4 0 4 -13
-2 -30 -14 -16 -12 -30 -18 -30 -13 0 4 -4 4 -8 -2 -4 -5 -25 -19 -47 -30 -68
-34 -341 -203 -390 -242 -6 -4 -33 -24 -60 -42 -28 -19 -52 -37 -55 -41 -3 -3
-22 -16 -42 -30 -21 -14 -38 -28 -38 -32 0 -5 -6 -8 -13 -8 -7 0 -27 -13 -45
-30 -18 -16 -49 -42 -70 -57 -20 -16 -42 -32 -48 -38 -6 -5 -31 -26 -55 -47
-327 -271 -686 -657 -914 -983 -27 -38 -53 -71 -57 -73 -4 -2 -8 -8 -8 -12 0
-5 -19 -37 -43 -72 -50 -73 -197 -307 -197 -313 0 -2 -15 -30 -34 -62 -62
-107 -165 -316 -160 -325 3 -4 35 -22 72 -39 37 -17 97 -46 135 -64 37 -18 69
-29 72 -25 2 4 30 56 61 116 31 60 60 114 65 120 5 6 6 14 2 17 -3 4 -1 7 5 7
7 0 12 4 12 10 0 8 34 66 155 268 29 49 91 137 98 140 4 2 7 8 7 13 0 11 101
152 112 157 5 2 8 8 8 14 0 6 9 20 19 32 11 11 43 50 71 86 45 58 71 89 133
164 90 108 316 339 446 456 46 41 89 80 95 85 10 10 170 140 206 168 103 81
421 302 460 320 8 4 29 16 45 26 45 29 331 176 398 205 41 17 44 26 23 59 -8
12 -39 69 -68 126 -30 58 -58 106 -64 107 -5 1 -22 -4 -39 -10z"/>
<path d="M5647 2656 c-80 -40 -153 -81 -162 -90 -9 -9 -21 -16 -26 -16 -33 0
-535 -344 -635 -435 -6 -5 -36 -30 -65 -55 -134 -113 -405 -379 -524 -515
-101 -115 -237 -286 -317 -397 -9 -13 -36 -50 -60 -83 -100 -137 -290 -440
-382 -608 -20 -37 -46 -84 -57 -104 -24 -43 -40 -29 133 -120 121 -65 138 -71
138 -52 0 13 158 290 212 372 21 32 38 60 38 62 0 4 75 117 147 225 25 36 207
283 229 310 11 12 24 27 29 34 6 6 30 36 55 66 25 30 61 72 80 94 64 73 364
371 429 427 35 30 76 64 90 76 39 34 37 32 166 129 66 50 140 104 165 120 25
16 50 33 56 39 6 5 27 19 47 30 20 11 37 23 37 27 0 5 4 8 9 8 6 0 49 24 98
53 114 70 244 139 313 168 30 12 59 26 63 30 5 4 -21 68 -58 143 -48 97 -72
136 -84 136 -10 0 -84 -33 -164 -74z"/>
<path d="M5970 2412 c-8 -3 -17 -8 -20 -11 -3 -3 -32 -20 -65 -37 -78 -41
-146 -79 -223 -126 -34 -21 -65 -38 -68 -38 -2 0 -10 -5 -17 -11 -7 -5 -59
-41 -116 -79 -133 -87 -134 -88 -226 -157 -6 -5 -37 -28 -70 -53 -33 -25 -65
-49 -71 -55 -6 -5 -30 -26 -54 -45 -24 -19 -54 -44 -66 -55 -12 -11 -46 -40
-75 -65 -78 -65 -374 -362 -449 -451 -129 -150 -199 -238 -280 -349 -30 -41
-58 -76 -62 -78 -5 -2 -8 -8 -8 -12 0 -5 -20 -37 -44 -72 -83 -120 -239 -379
-253 -421 -3 -9 -9 -17 -14 -17 -5 0 -9 -9 -9 -19 0 -11 -3 -21 -7 -23 -5 -1
-18 -24 -30 -50 l-23 -48 142 -70 141 -70 22 43 c46 91 109 203 126 229 11 14
19 29 19 33 0 7 18 35 133 211 86 131 242 339 317 423 8 9 37 44 65 76 68 81
342 356 440 441 44 38 82 71 85 74 19 20 205 162 300 229 63 45 120 85 125 89
20 14 241 150 290 177 28 15 84 46 125 68 41 22 76 41 78 42 2 2 -136 277
-141 281 -1 1 -9 -1 -17 -4z"/>
</g>
</svg>
